<svg width="36" height="36" viewBox="0 0 36 36" fill="none" xmlns="http://www.w3.org/2000/svg">
<g clip-path="url(#clip0_10846_32166)">
<mask id="mask0_10846_32166" style="mask-type:luminance" maskUnits="userSpaceOnUse" x="0" y="0" width="36" height="36">
<path d="M18.0002 35.5502C27.6928 35.5502 35.5502 27.6928 35.5502 18.0002C35.5502 8.3076 27.6928 0.450195 18.0002 0.450195C8.3076 0.450195 0.450195 8.3076 0.450195 18.0002C0.450195 27.6928 8.3076 35.5502 18.0002 35.5502Z" fill="white"/>
</mask>
<g mask="url(#mask0_10846_32166)">
<path d="M42.1313 -9.39355H-7.03125V45.2252H42.1313V-9.39355Z" fill="#92CA62"/>
<path d="M17.8311 46.2939C23.1123 46.2939 27.3936 41.6349 27.3936 35.8877C27.3936 30.1405 23.1123 25.4814 17.8311 25.4814C12.5498 25.4814 8.26855 30.1405 8.26855 35.8877C8.26855 41.6349 12.5498 46.2939 17.8311 46.2939Z" fill="#704B99"/>
<path d="M18.4502 30.8254L16.4814 35.8879L20.1939 35.6629L22.2189 30.1504" fill="#8B6BAB"/>
<path d="M18.2254 32.175C20.6485 32.175 22.6129 30.6388 22.6129 28.7437C22.6129 26.8487 20.6485 25.3125 18.2254 25.3125C15.8022 25.3125 13.8379 26.8487 13.8379 28.7437C13.8379 30.6388 15.8022 32.175 18.2254 32.175Z" fill="#4B2D74"/>
<path d="M10.9688 34.7061L12.6 31.0498L13.4438 34.1436" fill="#4B2D74"/>
<path d="M24.8623 34.7061L23.1748 31.0498L22.3311 34.1436" fill="#4B2D74"/>
<path d="M15.9188 6.1316C15.9188 6.1316 14.1188 5.40035 12.1501 6.9191C10.1813 8.43785 9.0001 9.6191 6.9751 9.9566C6.9751 9.9566 5.4001 9.00035 5.2876 7.08785C5.2876 7.08785 8.26885 7.7066 10.5751 5.7941C10.8563 5.5691 11.0813 5.40035 11.4188 5.2316C12.3751 4.72535 14.3438 4.05035 16.3126 5.62535L15.9188 6.07535V6.1316Z" fill="#010101"/>
<path d="M17.6623 5.90671C17.6623 5.90671 17.0998 1.74421 16.1436 1.46296C15.1873 1.18171 12.5998 2.53171 10.6311 1.85671C10.6311 1.85671 6.80605 4.61296 5.1748 5.00671C5.1748 5.00671 7.03106 7.25671 10.4623 6.30046C13.8936 5.34421 16.0873 5.11921 17.6623 5.85046V5.90671Z" fill="#4B2D74"/>
<path d="M34.594 18.1689C32.9065 10.9127 25.2565 5.6252 25.2565 5.6252C25.2565 5.6252 23.0627 4.1627 19.519 4.10645H17.044C13.5002 4.10645 11.3065 5.6252 11.3065 5.6252C11.3065 5.6252 3.65649 10.9127 1.96899 18.1689C0.562742 24.1877 11.9252 30.0939 17.8877 30.8814H18.7315C24.694 30.0939 36.0565 24.2439 34.6502 18.1689H34.594Z" fill="#704B99"/>
<path d="M24.5814 12.7693C24.6939 12.938 24.7501 13.1068 24.8064 13.2755C24.8064 13.388 24.8064 13.5005 24.8064 13.613C25.0314 13.6693 25.2564 13.7255 25.4814 13.7818C25.6501 13.5005 25.7626 13.2193 25.8189 12.938C25.9314 12.488 25.8189 12.038 25.7064 11.7568C25.5939 11.4193 25.4251 11.1943 25.2001 10.9693C24.8064 10.5193 24.3001 10.2943 23.7939 10.1255C23.5689 10.0693 23.2876 9.95676 23.0626 9.90051C22.6126 9.78801 22.0501 10.2943 21.8814 10.913C21.7126 11.4193 21.9376 11.8693 22.3314 11.8693C22.5564 11.8693 22.7814 11.8693 23.0064 11.8693C23.4564 11.9255 23.9064 12.038 24.2439 12.263C24.4126 12.3755 24.5251 12.488 24.6376 12.6568L24.5814 12.7693Z" fill="#010101"/>
<path d="M8.8877 7.70605C11.4189 9.1123 12.9939 11.9248 13.4439 14.7373C12.4314 12.0936 11.0814 9.50605 8.8877 7.70605Z" fill="#4B2D74"/>
<path d="M7.70625 8.8877C7.70625 8.8877 10.7438 10.6314 12.2063 15.5252V15.8627C12.2063 15.8627 12.0937 15.8627 11.7 15.8627C11.4187 15.8064 9.225 15.9752 9.225 15.9752L8.775 16.1439C7.9875 14.4002 6.91875 13.2189 6.075 12.4877C5.56875 12.0939 5.5125 12.1502 5.0625 11.9252C5.0625 11.9252 6.8625 9.50645 7.70625 8.8877Z" fill="#4B2D74"/>
<path d="M18.2254 29.8691C19.9129 29.7566 22.9504 29.1379 27.0566 26.8316C33.4129 23.2879 31.7254 18.3379 30.7691 17.1566C29.8129 15.9754 24.5254 15.1316 19.1254 14.9629H17.3254C11.9254 15.1316 6.58161 16.0316 5.68161 17.1566C4.72536 18.3379 3.03786 23.2316 9.39411 26.8316C13.5004 29.1379 16.5379 29.7566 18.2254 29.8691Z" fill="#010101"/>
<path d="M14.9066 10.8002C14.7941 10.6877 14.7379 10.5752 14.6254 10.5189C14.3441 10.2377 13.9504 10.0127 13.5004 9.90017C13.0504 9.84392 12.6004 9.90017 12.2066 10.1252C11.8129 10.2939 11.4754 10.5752 11.1379 10.8564C10.8004 11.1377 10.5191 11.4752 10.2941 11.8127C10.1816 11.9814 10.0129 12.1502 9.90039 12.3752C9.90039 12.3752 10.2941 11.9814 10.2941 12.0377C10.1816 12.2627 10.0691 12.4314 9.95664 12.7127C9.95664 12.7689 9.90039 12.8814 9.90039 12.9377C10.1816 13.1064 10.5191 13.3314 10.8004 13.5002C10.8004 13.5002 10.8566 13.3877 10.9129 13.3314C11.0816 13.0502 11.2504 12.8814 11.5316 12.6002C11.7566 12.3189 11.5879 12.4877 11.8691 12.3189C12.3754 11.9252 12.8254 11.7002 13.2191 11.7564C13.5004 11.7564 13.7816 11.9252 14.0629 12.2627C14.2879 12.4877 14.6254 12.4877 14.8504 12.2627C15.1879 11.9252 15.2441 11.3064 14.9629 10.9689L14.9066 10.8002Z" fill="#010101"/>
<path d="M6.18754 20.9248C6.18754 20.9248 6.30004 17.6623 7.20004 16.3123C9.39379 15.6373 13.275 15.1311 17.1563 15.0186H17.9438H18.3375H19.125C23.0063 15.1311 26.8875 15.6373 29.0813 16.3686C29.9813 17.7186 30.0938 20.9811 30.0938 20.9811C30.0938 20.9811 31.8938 23.0061 19.6313 23.2311C19.2375 23.2311 18.8438 23.2311 18.5063 23.2311C18.3938 23.2311 18.2813 23.2311 18.1688 23.2311C18.1688 23.2311 18.1688 23.2311 18.1125 23.2311C18.1125 23.2311 18.1125 23.2311 18.0563 23.2311C17.9438 23.2311 17.8313 23.2311 17.7188 23.2311C17.325 23.2311 16.9875 23.2311 16.5938 23.2311C4.33129 23.0061 6.13129 20.9811 6.13129 20.9811L6.18754 20.9248Z" fill="url(#paint0_linear_10846_32166)"/>
<path d="M18.2811 23.1748C10.7999 23.1748 7.14364 21.3748 4.83739 20.0811C4.78114 22.1061 5.68114 24.6936 9.50614 26.8311C13.6124 29.1373 16.5936 29.7561 18.3374 29.8686C20.0249 29.7561 23.0624 29.1373 27.1686 26.8311C30.9936 24.6936 31.8936 22.1061 31.8374 20.0811C29.4749 21.3748 25.8186 23.1748 18.3374 23.1748H18.2811Z" fill="#4B2D74"/>
<path d="M7.14385 16.3123C7.70635 16.1436 8.4376 15.9748 9.2251 15.8061C11.4188 15.3561 14.3438 15.0748 17.2688 15.0186H19.0688C22.9501 15.1311 26.8876 15.6373 29.0813 16.3686L29.4751 17.2123C21.0938 14.8498 7.70635 17.3811 7.70635 17.3811C7.25635 18.3373 7.0876 21.3186 7.0876 21.3186H6.9751L6.13135 21.0373C6.13135 21.0373 6.24385 17.7748 7.14385 16.4248V16.3123Z" fill="#B5653F"/>
<mask id="mask1_10846_32166" style="mask-type:luminance" maskUnits="userSpaceOnUse" x="8" y="14" width="10" height="9">
<path d="M9.22519 21.2627C9.22519 21.2627 12.5439 22.5565 17.1564 22.219C17.1564 22.219 17.3252 18.5627 17.1002 18.0565C16.8752 17.5502 15.4689 15.919 15.4689 15.919C15.4689 15.919 13.2752 15.019 13.1064 15.019C12.9377 15.019 8.83145 14.0627 8.60645 17.494" fill="white"/>
</mask>
<g mask="url(#mask1_10846_32166)">
<path d="M10.0689 22.4994C10.0689 22.4994 7.93143 18.3931 11.3627 16.2556C14.6814 14.2306 17.7752 18.9556 16.6502 22.2181C16.6502 22.2181 16.6502 22.2181 16.5377 22.2181C14.0064 22.8369 12.1502 22.8369 10.0689 22.4431V22.4994Z" fill="white"/>
<path d="M16.6501 22.2186C17.8314 18.8999 14.7376 14.1749 11.3626 15.9186C8.10011 17.6061 9.78761 22.5561 9.84386 22.4999H10.1251C10.1251 22.5561 9.61886 19.9124 10.1251 18.5624C10.5751 17.2124 12.0939 16.4249 13.5564 16.6499C15.7501 17.0436 16.4814 19.7436 16.5376 20.0811C16.6501 20.5311 16.6501 20.8686 16.6501 21.1499" fill="#010101"/>
<path d="M14.7379 19.3495C13.9504 18.337 12.4316 18.6745 12.0379 19.8558C11.6441 21.037 12.3191 22.3308 12.3191 22.3308L12.4879 22.5558C13.1629 22.7808 15.1879 22.6683 15.3566 22.612C15.4691 21.712 15.5816 20.362 14.7941 19.3495H14.7379Z" fill="#010101"/>
<path d="M13.3453 21.1007C13.6546 21.0715 13.8697 20.6717 13.8259 20.2078C13.782 19.7438 13.4957 19.3915 13.1865 19.4207C12.8772 19.4499 12.662 19.8497 12.7059 20.3136C12.7497 20.7776 13.036 21.1299 13.3453 21.1007Z" fill="white"/>
</g>
<mask id="mask2_10846_32166" style="mask-type:luminance" maskUnits="userSpaceOnUse" x="18" y="14" width="10" height="9">
<path d="M26.8875 21.2627C26.8875 21.2627 23.5688 22.5565 18.9563 22.219C18.9563 22.219 18.7875 18.5627 19.0125 18.0565C19.2375 17.5502 20.6438 15.919 20.6438 15.919C20.6438 15.919 22.8375 15.019 23.0063 15.019C23.175 15.019 27.2813 14.0627 27.5063 17.494" fill="white"/>
</mask>
<g mask="url(#mask2_10846_32166)">
<path d="M26.2689 22.4994C26.2689 22.4994 28.4064 18.3931 24.9751 16.2556C21.6564 14.2306 18.5626 18.9556 19.6876 22.2181C20.8126 25.4806 19.6876 22.2181 19.8001 22.2181C22.3314 22.8369 24.1876 22.8369 26.2689 22.4431V22.4994Z" fill="white"/>
<path d="M19.6315 22.2186C18.4503 18.8999 21.544 14.1749 24.919 15.9186C28.1815 17.6061 26.494 22.5561 26.4378 22.4999H26.1565C26.1565 22.5561 26.6628 19.9124 26.1565 18.5624C25.7065 17.2124 24.1878 16.4249 22.7253 16.6499C20.5315 17.0436 19.8003 19.7436 19.744 20.0811C19.6315 20.5311 19.6315 20.8686 19.6315 21.1499" fill="#010101"/>
<path d="M21.544 19.3495C22.3315 18.337 23.8503 18.6745 24.244 19.8558C24.6378 21.037 23.9628 22.3308 23.9628 22.3308L23.794 22.5558C23.119 22.7808 21.094 22.6683 20.9253 22.612C20.8128 21.712 20.7003 20.362 21.4878 19.3495H21.544Z" fill="#010101"/>
<path d="M22.2496 21.0519C22.5589 21.0226 22.774 20.6229 22.7302 20.1589C22.6863 19.695 22.4 19.3426 22.0908 19.3719C21.7815 19.4011 21.5663 19.8009 21.6102 20.2648C21.654 20.7287 21.9403 21.0811 22.2496 21.0519Z" fill="white"/>
</g>
<path d="M14.6814 25.2563C12.6002 25.1438 10.1252 24.5813 9.16895 22.5C10.4627 24.3 12.6564 24.6938 14.6814 25.2563Z" fill="#271550"/>
<path d="M9.05635 21.1506C9.05635 21.1506 8.5501 20.4756 7.8751 20.4756C7.2001 20.4756 7.36885 21.0381 7.36885 21.0381C7.36885 21.0381 8.3251 20.7006 9.16885 21.3756" fill="#010101"/>
<path d="M9.11253 22.0507C9.11253 22.0507 8.60628 21.4881 8.43753 21.2631C8.32503 21.0381 8.21253 20.9257 8.21253 20.9257C7.98753 20.8132 8.04378 21.3757 8.49378 21.8819C8.77503 22.1632 9.11253 22.1069 9.11253 22.1069V22.0507Z" fill="#010101"/>
<path d="M44.0438 -10.4619H-5.11865V44.1568H44.0438V-10.4619Z" fill="#FFE500"/>
<path d="M24.7007 36.1778C25.3812 30.471 22.6069 25.4482 18.5042 24.959C14.4015 24.4698 10.524 28.6994 9.84347 34.4062C9.16298 40.113 11.9372 45.1358 16.04 45.6251C20.1427 46.1143 24.0202 41.8846 24.7007 36.1778Z" fill="#704B99"/>
<path d="M17.4378 28.6316L11.644 33.0191L15.469 33.3004L21.769 28.4629" fill="#8B6BAB"/>
<path d="M20.5313 27.4506C19.8001 29.2506 17.6626 30.5443 15.7501 30.2631C13.8376 30.0381 12.9376 28.4068 13.6688 26.6068C14.4001 24.8068 16.5376 23.5131 18.4501 23.7943C20.3626 24.0756 21.2626 25.6506 20.5313 27.4506Z" fill="#4B2D74"/>
<path d="M22.556 34.7068L21.3185 30.8818L20.1372 33.8631" fill="#4B2D74"/>
<path d="M34.594 15.9754C34.594 15.9754 28.8003 14.7379 27.619 9.90039L25.9878 9.61914C25.9878 9.61914 26.269 11.7566 27.2815 12.8816C28.294 14.0066 28.294 17.3254 34.3128 17.9441C34.3128 17.9441 34.8753 16.8191 34.594 15.9754Z" fill="#181C2A"/>
<path d="M34.9313 10.8564L34.2001 14.6814C34.2001 14.6814 29.9251 14.0064 25.2563 8.15645L26.3251 5.0627C26.3251 5.0627 27.9001 5.0627 28.7438 4.9502C28.7438 4.9502 31.7813 8.83144 34.9313 10.8564Z" fill="#3C305D"/>
<path d="M26.6064 5.96325C26.6064 5.96325 32.7377 12.657 32.7939 19.9133C32.7939 26.4945 18.4502 29.7008 13.5002 28.3508C8.43769 26.9445 3.88144 23.4008 2.25019 13.7258C2.13769 13.1633 2.08144 12.5445 2.41894 12.0945C3.99394 10.0695 9.00019 4.557 15.4127 3.207C22.6689 1.857 26.5502 5.96325 26.5502 5.96325H26.6064Z" fill="#704B99"/>
<path d="M2.75635 13.7816C3.9376 20.6441 7.70635 24.4691 10.9126 26.6066C10.9126 26.6066 14.1751 28.0691 21.0376 25.8753C27.6188 23.7941 27.1126 18.7878 26.4938 17.4378C25.5376 15.3566 13.8938 11.5316 8.04385 11.7566C2.19385 11.9816 3.7126 12.4316 3.0376 12.9941C2.3626 13.5566 2.7001 13.8378 2.7001 13.8378L2.75635 13.7816Z" fill="#010101"/>
<path d="M7.25633 11.9814C7.59384 11.9814 7.65009 11.7564 8.04384 11.7564C13.9501 11.5314 25.5376 15.4127 26.4938 17.4377C27.1126 18.7877 27.6188 23.7939 21.0376 25.8752C14.2313 28.0127 10.8001 26.5502 10.8001 26.5502C9.11259 25.4252 6.75009 23.0064 5.51259 20.8689C5.51259 20.8689 5.68134 20.5314 4.83759 19.3502C3.99384 18.1689 6.24383 16.8189 6.41259 15.3002C6.52509 14.0627 6.30009 12.9939 7.31259 11.9814H7.25633Z" fill="url(#paint1_linear_10846_32166)"/>
<path d="M24.8628 22.4442C24.8628 22.4442 25.4815 18.8442 24.5815 16.9879C24.5815 16.9879 20.3628 14.7379 15.3003 13.4442C10.2378 12.1504 6.86279 12.4879 6.86279 12.4879C6.86279 12.4879 6.97529 11.8129 7.14404 11.8129C7.42529 11.8129 14.9628 10.7442 25.369 16.2567C25.369 16.2567 26.4378 16.9879 26.6628 17.6067C26.8878 18.2254 26.944 20.1379 26.6628 21.3754C26.6628 21.7692 25.7065 22.3317 24.8628 22.4442Z" fill="#B5653F"/>
<path d="M17.6065 7.93232C17.719 7.87607 17.8315 7.76357 17.944 7.70732C18.2815 7.53857 18.6752 7.36982 19.069 7.42607C19.4627 7.42607 19.8565 7.65107 20.194 7.87607C20.5315 8.15732 20.7565 8.43857 20.9815 8.77607C21.2065 9.11357 21.3752 9.45107 21.544 9.78857C21.6002 9.95732 21.7127 10.1823 21.769 10.3511C21.8252 10.5761 21.8815 10.8011 21.9377 11.0261C21.9377 11.0823 21.9377 11.1948 21.9377 11.2511C21.6002 11.3636 21.319 11.4761 20.9815 11.5323C20.9815 11.4761 20.9815 11.4198 20.9815 11.3636C20.869 11.0823 20.7565 10.8573 20.5877 10.5761C20.419 10.2948 20.2502 10.0136 20.0815 9.78857C19.6877 9.33857 19.3502 9.00107 18.9565 8.94482C18.6752 8.94482 18.394 8.94482 18.1127 9.22607C17.8877 9.39482 17.6065 9.28232 17.4377 9.00107C17.2127 8.60732 17.269 8.10107 17.6065 7.81982V7.93232Z" fill="#010101"/>
<path d="M10.7437 8.3252C10.6312 8.4377 10.5187 8.60645 10.4624 8.7752C10.4624 8.83145 10.4062 8.94395 10.3499 9.05645C10.1249 9.05645 9.95615 9.05645 9.73115 9.05645C9.6749 8.7752 9.61865 8.49395 9.61865 8.2127C9.61865 7.7627 9.7874 7.4252 9.95615 7.14395C10.1249 6.8627 10.3499 6.69395 10.5749 6.5252C11.0249 6.24395 11.5312 6.13145 12.0374 6.0752C12.2624 6.0752 12.5437 6.0752 12.7687 6.0752C13.1624 6.0752 13.6124 6.63769 13.6124 7.25644C13.6124 7.76269 13.3312 8.1002 12.9937 7.9877C12.7687 7.9877 12.5437 7.93145 12.3749 7.8752C11.9249 7.8752 11.5312 7.8752 11.1937 7.9877C11.0249 8.04395 10.8562 8.15645 10.7437 8.26895V8.3252Z" fill="#010101"/>
<path d="M21.0938 20.926C21.0938 20.926 23.6813 17.4385 20.8126 15.1322C18.0563 12.8822 14.5126 16.876 15.0751 19.9135C15.0751 19.9135 15.0751 19.9135 15.1313 19.9135C17.3813 20.7572 19.0688 20.9822 21.0376 20.8697L21.0938 20.926Z" fill="white"/>
<path d="M15.0751 19.913C14.4563 16.763 18.0563 12.8255 20.8688 14.7943C23.6251 16.7068 21.3188 20.9818 21.2626 20.9255H20.8688C20.8688 20.9255 21.7688 18.6193 21.5438 17.3255C21.3188 16.088 20.1376 15.1318 18.7313 15.2443C16.6501 15.3568 15.5813 17.7193 15.4688 18.0005C15.3001 18.3943 15.2438 18.7318 15.1876 18.9568" fill="#010101"/>
<path d="M18.4497 17.776C19.2935 16.9323 20.6435 17.3823 20.8685 18.5073C21.0935 19.6323 20.3622 20.7573 20.3622 20.7573L20.1935 20.9823C19.5747 21.151 17.7185 20.7573 17.606 20.701C17.606 19.9135 17.606 18.6198 18.506 17.776H18.4497Z" fill="#010101"/>
<path d="M19.8913 19.881C20.2269 19.8164 20.4227 19.3683 20.3287 18.8802C20.2347 18.3921 19.8865 18.0488 19.5509 18.1135C19.2154 18.1781 19.0196 18.6261 19.1135 19.1142C19.2075 19.6023 19.5558 19.9456 19.8913 19.881Z" fill="white"/>
<path d="M28.7435 9.61914C26.4935 10.0129 24.581 11.4191 22.9497 12.9941C24.356 11.2504 26.4372 9.78789 28.7435 9.61914Z" fill="#121520"/>
<path d="M23.5124 14.907C26.9437 11.307 30.2624 11.082 30.2624 11.082C30.5437 11.532 30.8249 12.0383 31.1062 12.657C31.4999 13.4445 31.7812 14.1195 31.9499 14.7945C31.4437 14.7945 30.8812 14.7945 30.2062 14.9633C29.1374 15.1883 27.6749 15.7508 26.2687 16.932L25.9874 16.5945C25.9874 16.5945 24.1312 15.4695 23.8499 15.4133C23.5687 15.2445 23.3999 15.1883 23.3999 15.1883L23.5687 14.907H23.5124Z" fill="#4B2D74"/>
<path d="M12.0377 19.1817C12.0377 19.1817 14.2877 14.1755 10.969 12.6567C8.26899 11.4192 6.75024 15.2442 7.53774 17.1005C8.21274 18.2255 10.9127 19.2942 12.094 19.1817H12.0377Z" fill="white"/>
<path d="M21.6562 22.2758C21.6562 22.2758 22.7813 21.9383 23.4563 20.9258L23.5688 21.2633L23.0625 22.1633C23.0625 22.1633 22.1625 22.332 21.6562 22.2758Z" fill="#010101"/>
<path d="M22.3309 21.4319C22.3309 21.4319 23.4559 21.2631 23.7934 21.4319C24.1309 21.6006 24.1309 21.7694 24.1309 21.7694C24.1309 21.7694 24.7496 20.9819 24.4121 20.9819C24.0746 20.9819 23.6809 20.7006 22.1621 21.4319" fill="#010101"/>
<path d="M26.8878 20.7572C26.3815 22.5572 24.9753 24.4697 21.4878 25.7072C14.794 28.0697 10.969 26.6635 10.969 26.6635C7.93154 24.6947 4.38779 21.151 2.92529 14.9072C2.92529 14.9072 3.60029 15.4697 4.89404 16.5947C6.35654 17.8885 8.71904 19.351 11.7003 20.3072C17.3253 22.1635 24.8065 22.726 26.8878 20.701V20.7572Z" fill="#4B2D74"/>
<path d="M10.9124 12.4317C14.2312 13.9505 12.1499 19.1255 12.1499 19.1255L12.0374 19.2942L11.8124 19.238C12.4312 17.7192 12.2062 15.863 12.2062 15.863C12.2062 15.6942 12.2062 15.5817 12.1499 15.4692C11.8687 14.1755 10.8562 13.0505 9.8999 13.163C8.94365 13.3317 7.4249 14.1192 7.5374 17.2692L7.36865 17.0442C6.69365 15.0192 8.2124 11.1942 10.9124 12.4317Z" fill="#010101"/>
<path d="M10.5752 15.7507C10.5752 15.7507 11.4752 15.2444 12.2064 15.8632C12.2064 15.8632 12.9377 16.8757 12.0377 19.1819V19.2944C10.9127 19.1819 9.73145 18.6757 9.73145 18.6757V18.5632C9.73145 18.5632 9.4502 16.6507 10.5752 15.8069V15.7507Z" fill="#010101"/>
<path d="M12.0776 17.1621C12.0793 16.6961 11.8288 16.3175 11.5181 16.3164C11.2074 16.3153 10.9543 16.6922 10.9527 17.1582C10.951 17.6242 11.2015 18.0028 11.5122 18.0039C11.8229 18.005 12.076 17.6281 12.0776 17.1621Z" fill="white"/>
<path d="M21.6003 22.6689C19.6878 23.5689 17.3253 24.3002 15.3003 23.3439C17.4378 23.8502 19.5753 23.1189 21.6003 22.6689Z" fill="#271550"/>
</g>
<path d="M18 1.2002C27.2782 1.2002 34.7997 8.72185 34.7998 18C34.7998 27.2782 27.2782 34.7998 18 34.7998C8.72185 34.7997 1.2002 27.2782 1.2002 18C1.2003 8.72192 8.72192 1.2003 18 1.2002Z" stroke="#4C2D74" stroke-width="1.50052" stroke-miterlimit="10"/>
</g>
<defs>
<linearGradient id="paint0_linear_10846_32166" x1="17.0438" y1="27.7873" x2="19.0125" y2="15.8061" gradientUnits="userSpaceOnUse">
<stop stop-color="#F5D7B8"/>
<stop offset="1" stop-color="#D2966D"/>
</linearGradient>
<linearGradient id="paint1_linear_10846_32166" x1="2.64384" y1="11.1939" x2="22.2751" y2="24.2439" gradientUnits="userSpaceOnUse">
<stop stop-color="#F5D7B8"/>
<stop offset="1" stop-color="#D2966D"/>
</linearGradient>
<clipPath id="clip0_10846_32166">
<rect width="36" height="36" fill="white"/>
</clipPath>
</defs>
</svg>
