<svg width="36" height="36" viewBox="0 0 36 36" fill="none" xmlns="http://www.w3.org/2000/svg">
<g clip-path="url(#clip0_10846_32952)">
<mask id="mask0_10846_32952" style="mask-type:luminance" maskUnits="userSpaceOnUse" x="0" y="0" width="36" height="36">
<path d="M18.0001 35.55C27.6616 35.55 35.4938 27.7178 35.4938 18.0563C35.4938 8.39472 27.6616 0.5625 18.0001 0.5625C8.33857 0.5625 0.506348 8.39472 0.506348 18.0563C0.506348 27.7178 8.33857 35.55 18.0001 35.55Z" fill="white"/>
</mask>
<g mask="url(#mask0_10846_32952)">
<path d="M44.5503 -10.9688H-4.38721V43.425H44.5503V-10.9688Z" fill="#FFE500"/>
<path d="M10.2939 26.3248C10.2939 26.3248 13.8377 26.4373 14.2314 26.6061C15.1314 26.9998 14.3439 29.1936 13.5564 29.4186C13.5564 29.4186 10.2939 28.4061 9.16895 27.9561L10.2939 26.2686V26.3248Z" fill="#4B2D74"/>
<path d="M7.81885 25.4248C7.81885 25.4248 8.6626 25.8748 10.9126 26.1561C10.9126 26.1561 11.1938 27.6186 9.84385 28.4623C9.5626 28.7998 7.4251 26.8311 6.9751 26.4373C6.9751 26.4373 7.59385 26.2686 7.8751 25.4248H7.81885Z" fill="#5A2F88"/>
<path d="M7.76288 25.8747C7.76288 25.8747 7.98788 24.6372 8.49413 24.5247C9.00038 24.4122 9.11288 25.3684 8.66288 26.4372C8.38163 27.1122 7.48163 26.8872 7.70663 25.8747H7.76288Z" fill="#704B99"/>
<path d="M5.68147 24.1875C5.68147 24.1875 4.89397 24.4125 5.45647 25.5937C6.01897 26.775 6.63772 26.775 6.91897 26.9437C7.20022 27.1125 8.55022 27.1125 8.71897 26.325C8.94397 25.0875 8.21272 25.4812 7.59397 24.975C6.97522 24.4687 6.07522 23.9062 5.68147 24.1875Z" fill="#704B99"/>
<path d="M25.8191 25.4811C25.8191 25.4811 22.3879 26.2686 21.9941 26.4936C21.2066 26.9998 22.3316 29.0811 23.2316 29.1373C23.2316 29.1373 26.2691 27.5623 27.2254 26.8873L25.8191 25.4248V25.4811Z" fill="#4B2D74"/>
<path d="M28.0128 24.1875C28.0128 24.1875 27.2815 24.8062 25.144 25.4812C25.144 25.4812 25.144 26.9437 26.6628 27.5625C27.0003 27.8438 28.744 25.5375 29.0815 25.0312C29.0815 25.0312 28.4628 24.975 28.0128 24.1875Z" fill="#5A2F88"/>
<path d="M28.238 24.5816C28.238 24.5816 27.788 23.4004 27.2818 23.4004C26.7755 23.4004 26.7755 24.3566 27.4505 25.3129C27.8443 25.9316 28.688 25.5379 28.238 24.5816Z" fill="#704B99"/>
<path d="M29.9255 22.5564C29.9255 22.5564 30.713 22.6127 30.4317 23.9064C30.1505 25.2002 29.5317 25.3127 29.1942 25.5377C28.8567 25.7627 27.6192 26.0439 27.338 25.2564C26.888 24.0752 27.6755 24.3564 28.1817 23.6814C28.688 23.0064 29.4755 22.3877 29.8692 22.5564H29.9255Z" fill="#704B99"/>
<path d="M24.8065 33.2437C24.8065 38.5875 22.7815 42.4687 19.3503 42.525C15.919 42.525 13.0503 38.25 13.0503 32.9625C13.0503 27.6187 15.0753 23.7375 18.5065 23.6812C21.9378 23.625 24.8065 27.9562 24.8065 33.2437Z" fill="#704B99"/>
<path d="M17.7189 27.3936L14.2314 33.7498L17.2127 34.4811L21.8252 24.5811" fill="#8B6BAB"/>
<path d="M21.3192 24.8066C20.8692 26.5504 19.0692 27.9566 17.2692 27.9566C15.4692 27.9566 14.4567 26.6066 14.9067 24.8629C15.3567 23.1191 17.1567 21.7129 18.9567 21.7129C20.7005 21.7129 21.7692 23.0629 21.3192 24.8066Z" fill="#4B2D74"/>
<path d="M32.8504 12.6559C32.8504 12.6559 27.3941 12.2059 25.7629 7.9309H24.2441C24.2441 7.87465 24.7504 9.78715 25.8191 10.6872C26.8879 11.5872 27.2816 14.6809 32.8504 14.5122C32.8504 14.5122 33.1879 13.4434 32.8504 12.6559Z" fill="#181C2A"/>
<path d="M32.5691 7.98711L32.3441 11.5871C32.3441 11.5871 28.3504 11.4746 23.4004 6.63711L24.0191 3.71211C24.0191 3.71211 25.4816 3.54336 26.2129 3.31836C26.2129 3.31836 29.4191 6.52461 32.5691 7.98711Z" fill="#3C305D"/>
<path d="M24.3564 4.44332C24.3564 4.44332 30.7689 9.84332 31.6689 16.4808C32.5126 22.4996 19.6876 27.1121 15.0189 26.4371C10.2376 25.7621 5.62512 23.0621 2.98137 14.3996C2.81262 13.8933 2.70012 13.3308 2.98137 12.8808C4.16262 10.8558 8.10012 5.17457 13.8376 3.20582C20.3064 1.12457 24.3564 4.38707 24.3564 4.38707V4.44332Z" fill="#704B99"/>
<path d="M3.43147 14.3995C5.34397 20.587 9.16897 23.6245 12.4315 25.1433C12.4315 25.1433 15.6377 26.0995 21.6002 23.287C27.394 20.587 26.3252 16.087 25.6502 14.962C24.5252 13.162 13.444 11.0245 8.10022 11.9245C5.56897 12.3183 4.21897 13.0495 3.65647 13.612C3.09397 14.1745 3.43147 14.3995 3.43147 14.3995Z" fill="#010101"/>
<path d="M7.36923 12.206C7.65048 12.1497 7.70673 11.981 8.04423 11.9247C13.388 11.0247 24.5255 13.2185 25.5942 14.9622C26.3255 16.0872 27.338 20.6435 21.5442 23.2872C15.5255 26.0435 12.263 25.0872 12.263 25.0872C10.5755 24.2435 8.15673 22.331 6.75048 20.4747C6.75048 20.4747 6.86298 20.1372 5.90673 19.181C5.00673 18.2247 6.91923 16.706 6.86298 15.2997C6.80673 13.8935 6.52548 13.2185 7.31298 12.1497L7.36923 12.206Z" fill="url(#paint0_linear_10846_32952)"/>
<path d="M24.6942 19.7438C24.6942 19.7438 24.863 16.3688 23.7942 14.7938C23.7942 14.7938 19.6317 13.2188 14.9067 12.6001C9.56299 11.9251 7.03174 12.7126 7.03174 12.7126C7.03174 12.7126 7.03174 12.0938 7.20049 12.0376C7.48174 12.0376 14.2317 10.1251 24.413 14.0063C24.413 14.0063 25.4817 14.5688 25.763 15.0751C26.0442 15.5813 26.3255 17.3813 26.213 18.5626C26.3255 18.9001 25.4255 19.5751 24.6942 19.7438Z" fill="#B5653F"/>
<path d="M16.3688 7.31211C16.4251 7.25586 16.5376 7.14336 16.6501 7.08711C16.9313 6.86211 17.2688 6.69336 17.6626 6.69336C18.0563 6.69336 18.4501 6.80586 18.7313 6.97461C19.0688 7.14336 19.3501 7.42461 19.5751 7.70586C19.8001 7.98711 20.0251 8.26836 20.1938 8.60586C20.3063 8.71836 20.3626 8.94336 20.4751 9.11211C20.5876 9.28086 20.6438 9.50586 20.7001 9.67461C20.7001 9.73086 20.7001 9.78711 20.7001 9.89961C20.4188 10.0121 20.1376 10.1809 19.8563 10.2934C19.8563 10.2934 19.8563 10.1809 19.8001 10.1246C19.6876 9.89961 19.5188 9.67461 19.3501 9.44961C19.1813 9.22461 18.9563 8.99961 18.7876 8.77461C18.3938 8.38086 18.0001 8.15586 17.6626 8.15586C17.4376 8.15586 17.1563 8.26836 16.9313 8.49336C16.7063 8.66211 16.4813 8.60586 16.2563 8.38086C15.9751 8.04336 16.0313 7.53711 16.2563 7.31211H16.3688Z" fill="#010101"/>
<path d="M10.1253 8.4375C10.0128 8.55 9.95654 8.71875 9.90029 8.8875C9.90029 8.94375 9.90029 9.05625 9.90029 9.16875C9.73154 9.16875 9.50654 9.225 9.33779 9.28125C9.22529 9.05625 9.16904 8.775 9.11279 8.55C9.11279 8.15625 9.16904 7.81875 9.33779 7.5375C9.45029 7.25625 9.61904 7.0875 9.84404 6.91875C10.2378 6.58125 10.6878 6.4125 11.1378 6.3C11.3628 6.3 11.5878 6.24375 11.8128 6.1875C12.2065 6.1875 12.6565 6.6375 12.7128 7.14375C12.769 7.59375 12.6003 7.93125 12.2628 7.93125C12.0378 7.93125 11.869 7.93125 11.644 7.93125C11.2503 7.93125 10.8565 7.9875 10.5753 8.15625C10.4065 8.2125 10.294 8.325 10.1815 8.49375L10.1253 8.4375Z" fill="#010101"/>
<path d="M21.0939 18.7875C21.0939 18.7875 23.0626 15.3 20.1939 13.5C17.3814 11.7563 14.6251 15.8063 15.5251 18.5625C15.5251 18.5625 15.5251 18.5625 15.5814 18.5625C17.7189 19.0688 19.2939 19.0688 21.0939 18.7313V18.7875Z" fill="white"/>
<path d="M15.4688 18.5623C14.5126 15.7498 17.3251 11.7561 20.1376 13.2186C22.8938 14.6811 21.2626 18.8436 21.2063 18.7873H20.8688C20.8688 18.8436 21.4313 16.5936 21.0938 15.4686C20.7563 14.3436 19.5751 13.6123 18.2813 13.8936C16.4251 14.2311 15.6938 16.5373 15.6376 16.8186C15.5251 17.1561 15.5251 17.4936 15.5251 17.7186" fill="#010101"/>
<path d="M18.3379 16.1996C19.0129 15.2996 20.3067 15.5808 20.6442 16.5933C20.9817 17.6058 20.4192 18.6746 20.4192 18.6746L20.3067 18.8996C19.7442 19.1246 18.0567 18.9558 17.8879 18.9558C17.8317 18.2246 17.6629 17.0433 18.3942 16.1433L18.3379 16.1996Z" fill="#010101"/>
<path d="M19.848 18.0143C20.1432 17.9173 20.2644 17.4798 20.1189 17.0371C19.9733 16.5944 19.6161 16.3142 19.321 16.4112C19.0259 16.5083 18.9046 16.9458 19.0502 17.3885C19.1957 17.8311 19.5529 18.1113 19.848 18.0143Z" fill="white"/>
<path d="M26.7751 7.53711C24.7501 8.21211 23.1751 9.67461 21.8813 11.3059C23.0063 9.50586 24.6938 7.98711 26.7751 7.53711Z" fill="#121520"/>
<path d="M22.5563 12.9938C25.3126 9.28125 28.2938 8.71875 28.2938 8.71875C28.6313 9.1125 28.9126 9.5625 29.2501 10.0687C29.7001 10.7437 30.0376 11.3625 30.2626 11.925C29.8126 11.925 29.2501 12.0375 28.6876 12.2625C27.7313 12.6 26.4376 13.275 25.3126 14.5125L24.9751 14.2312C24.9751 14.2312 23.1751 13.4437 22.8938 13.3875C22.6126 13.275 22.4438 13.2188 22.4438 13.2188L22.6126 12.9375L22.5563 12.9938Z" fill="#4B2D74"/>
<path d="M12.6001 18.2808C12.6001 18.2808 14.0626 13.4433 10.8564 12.4308C7.65014 11.4183 7.31264 15.2996 8.21264 16.8746C9.00014 17.7746 11.5314 18.5058 12.6001 18.2808Z" fill="white"/>
<path d="M21.769 19.9693C21.769 19.9693 22.7815 19.5193 23.2878 18.5068L23.4565 18.7881L23.119 19.6881C23.119 19.6881 22.3315 19.9693 21.8253 19.9693H21.769Z" fill="#010101"/>
<path d="M22.2751 19.0689C22.2751 19.0689 23.2876 18.7876 23.6251 18.9001C23.9626 19.0126 23.9626 19.1814 23.9626 19.1814C23.9626 19.1814 24.4126 18.3939 24.1313 18.4501C23.8501 18.5064 23.4563 18.2814 22.1626 19.1251" fill="#010101"/>
<path d="M26.3815 18.0004C26.1565 19.6879 25.0315 21.6566 21.994 23.1754C16.144 26.1004 12.4878 25.3129 12.4878 25.3129C9.45029 23.8504 5.79404 21.0379 3.76904 15.5254C3.76904 15.5254 4.44404 15.9754 5.73779 16.8754C7.25654 17.8879 9.56279 18.9566 12.4315 19.5191C17.7753 20.5879 24.7503 20.1941 26.3815 18.1129V18.0004Z" fill="#4B2D74"/>
<path d="M10.8005 12.2062C14.0068 13.2187 12.713 18.225 12.713 18.225V18.3937C12.6568 18.3937 12.6568 18.3937 12.6568 18.3937H12.4318C12.8255 16.9312 12.3755 15.2437 12.3755 15.2437C12.3755 15.1312 12.3193 14.9625 12.263 14.85C11.813 13.6687 10.8005 12.7687 9.95676 12.9937C9.11301 13.2187 7.81926 14.175 8.26926 17.0437L8.10051 16.875C7.20051 15.075 8.21301 11.4187 10.8005 12.2062Z" fill="#010101"/>
<path d="M10.8564 15.2997C10.8564 15.2997 11.5876 14.7372 12.3751 15.1872C12.3751 15.1872 13.1626 16.0309 12.6001 18.2809V18.3934C11.5876 18.3934 10.4064 18.1122 10.4064 18.1122V17.9997C10.4064 17.9997 9.90011 16.2559 10.8564 15.3559V15.2997Z" fill="#010101"/>
<path d="M11.9436 17.2445C12.2211 17.2099 12.4024 16.832 12.3487 16.4005C12.2949 15.9689 12.0264 15.647 11.7489 15.6816C11.4715 15.7161 11.2902 16.094 11.3439 16.5256C11.3977 16.9572 11.6662 17.279 11.9436 17.2445Z" fill="white"/>
<path d="M21.7691 20.3066C20.0816 21.3191 18.0566 22.2754 16.0879 21.7129C18.1129 21.9379 19.9129 21.0379 21.7691 20.3066Z" fill="#271550"/>
</g>
<path d="M18 0.776367C27.5122 0.776367 35.2235 8.48783 35.2236 18C35.2236 27.5123 27.5123 35.2236 18 35.2236C8.48783 35.2235 0.776367 27.5122 0.776367 18C0.776473 8.4879 8.4879 0.776473 18 0.776367Z" stroke="#4C2D74" stroke-width="0.653061" stroke-miterlimit="10"/>
</g>
<defs>
<linearGradient id="paint0_linear_10846_32952" x1="3.07656" y1="12.0726" x2="22.5789" y2="21.7668" gradientUnits="userSpaceOnUse">
<stop stop-color="#F5D7B8"/>
<stop offset="1" stop-color="#D2966D"/>
</linearGradient>
<clipPath id="clip0_10846_32952">
<rect width="36" height="36" fill="white"/>
</clipPath>
</defs>
</svg>
