<svg width="36" height="36" viewBox="0 0 36 36" fill="none" xmlns="http://www.w3.org/2000/svg">
<mask id="mask0_10846_32240" style="mask-type:luminance" maskUnits="userSpaceOnUse" x="0" y="0" width="36" height="36">
<path d="M18.1136 35.7705C27.9921 35.7705 36.0001 27.763 36.0001 17.8852C36.0001 8.00749 27.9921 0 18.1136 0C8.23513 0 0.227051 8.00749 0.227051 17.8852C0.227051 27.763 8.23513 35.7705 18.1136 35.7705Z" fill="white"/>
</mask>
<g mask="url(#mask0_10846_32240)">
<path d="M42.7649 -10.0889H-7.34033V45.5732H42.7649V-10.0889Z" fill="#92CA62"/>
<path d="M17.9988 46.7198C23.3813 46.7198 27.7447 41.9718 27.7447 36.1148C27.7447 30.2578 23.3813 25.5098 17.9988 25.5098C12.6163 25.5098 8.25293 30.2578 8.25293 36.1148C8.25293 41.9718 12.6163 46.7198 17.9988 46.7198Z" fill="#704B99"/>
<path d="M18.5722 30.8979L16.623 36.1144L20.4067 35.8851L22.4706 30.21" fill="#8B6BAB"/>
<path d="M18.3427 32.3315C20.8123 32.3315 22.8144 30.7659 22.8144 28.8347C22.8144 26.9035 20.8123 25.3379 18.3427 25.3379C15.8731 25.3379 13.8711 26.9035 13.8711 28.8347C13.8711 30.7659 15.8731 32.3315 18.3427 32.3315Z" fill="#4B2D74"/>
<path d="M10.9473 34.9107L12.6671 31.1846L13.5271 34.2801" fill="#4B2D74"/>
<path d="M25.1079 34.9107L23.4454 31.1846L22.5854 34.2801" fill="#4B2D74"/>
<path d="M16.05 5.78989C16.05 5.78989 14.2154 5.04467 12.2089 6.59243C10.2024 8.14019 8.99853 9.34401 6.9347 9.68795C6.9347 9.68795 5.3295 8.71344 5.21484 6.7644C5.21484 6.7644 8.25326 7.39497 10.6037 5.44594C10.8904 5.21664 11.1197 5.04467 11.4637 4.8727C12.4383 4.35678 14.4448 3.66888 16.4513 5.27397L16.05 5.73256V5.78989Z" fill="#010101"/>
<path d="M17.7694 5.50309C17.7694 5.50309 17.1962 1.26108 16.2216 0.974454C15.247 0.687831 12.6099 2.06362 10.6034 1.37573C10.6034 1.37573 6.70501 4.18462 5.04248 4.5859C5.04248 4.5859 6.93433 6.87888 10.4314 5.90436C13.9284 4.92984 16.1642 4.70054 17.7694 5.44576V5.50309Z" fill="#4B2D74"/>
<path d="M35.0827 18.0001C33.3629 10.6052 25.5662 5.21671 25.5662 5.21671C25.5662 5.21671 23.3304 3.72627 19.7187 3.66895H17.1962C13.5845 3.66895 11.3487 5.21671 11.3487 5.21671C11.3487 5.21671 3.55198 10.6052 1.83212 18.0001C0.398905 24.1338 11.9793 30.1529 18.0561 30.9554H18.9161C24.9929 30.1529 36.5733 24.1911 35.1401 18.0001H35.0827Z" fill="#704B99"/>
<path d="M24.8213 12.4972C24.9359 12.6692 24.9933 12.8412 25.0506 13.0131C25.0506 13.1278 25.0506 13.2424 25.0506 13.3571C25.2799 13.4144 25.5092 13.4717 25.7385 13.5291C25.9105 13.2424 26.0252 12.9558 26.0825 12.6692C26.1972 12.2106 26.0825 11.752 25.9678 11.4654C25.8532 11.1214 25.6812 10.8921 25.4519 10.6628C25.0506 10.2042 24.5346 9.97493 24.0187 9.80296C23.7894 9.74564 23.5027 9.63099 23.2734 9.57366C22.8148 9.45901 22.2415 9.97493 22.0695 10.6055C21.8975 11.1214 22.1268 11.58 22.5281 11.58C22.7574 11.58 22.9868 11.58 23.2161 11.58C23.6747 11.6373 24.1333 11.752 24.4773 11.9813C24.6493 12.0959 24.7639 12.2106 24.8786 12.3826L24.8213 12.4972Z" fill="#010101"/>
<path d="M8.82617 7.39551C9.51412 7.73945 10.0874 8.19805 10.6034 8.71397C11.1193 9.22989 11.5779 9.80314 11.9792 10.4337C12.3805 11.0643 12.7245 11.7522 12.9538 12.4401C13.0685 12.784 13.1831 13.128 13.2978 13.4719C13.3551 13.8158 13.4698 14.1598 13.5271 14.5611C13.2405 13.8732 13.0112 13.1853 12.6672 12.5547C12.3805 11.9241 12.0366 11.2936 11.6353 10.663C11.234 10.0324 10.8327 9.45919 10.374 8.94327C9.91542 8.37002 9.39946 7.8541 8.82617 7.39551Z" fill="#4B2D74"/>
<path d="M7.6798 8.59863C7.6798 8.59863 10.7755 10.3757 12.2661 15.3629V15.7069C12.2661 15.7069 12.1514 15.7069 11.7501 15.7069C11.4635 15.6495 9.22767 15.8215 9.22767 15.8215L8.76904 15.9935C7.96644 14.2164 6.8772 13.0126 6.01727 12.2674C5.50131 11.8661 5.44398 11.9235 4.98535 11.6942C4.98535 11.6942 6.81987 9.2292 7.6798 8.59863Z" fill="#4B2D74"/>
<path d="M18.3431 29.981C20.0629 29.8664 23.1587 29.2358 27.3437 26.8855C33.8218 23.2741 32.102 18.2295 31.1274 17.0257C30.1528 15.8219 24.7639 14.962 19.2603 14.79H17.4258C11.9223 14.962 6.47605 15.8792 5.55879 17.0257C4.64153 18.1722 2.86434 23.2167 9.34248 26.8855C13.5275 29.2358 16.6232 29.8664 18.3431 29.981Z" fill="#010101"/>
<path d="M14.9606 10.4906C14.846 10.376 14.7887 10.2613 14.674 10.204C14.3874 9.91736 13.9861 9.68806 13.5274 9.57341C13.0688 9.51609 12.6102 9.57341 12.2089 9.80271C11.8076 9.97468 11.4636 10.2613 11.1196 10.5479C10.7757 10.8345 10.489 11.1785 10.2597 11.5224C10.145 11.6944 9.97306 11.8664 9.8584 12.0957C9.8584 12.0957 10.2597 11.6944 10.2597 11.7517C10.145 11.981 10.0304 12.153 9.91573 12.4396C9.91573 12.497 9.8584 12.6116 9.8584 12.6689C10.145 12.8409 10.489 13.0702 10.7757 13.2422C10.7757 13.2422 10.833 13.1275 10.8903 13.0702C11.0623 12.7836 11.2343 12.6116 11.5209 12.325C11.7502 12.0384 11.5783 12.2103 11.8649 12.0384C12.3809 11.6371 12.8395 11.4078 13.2408 11.4651C13.5274 11.4651 13.8141 11.6371 14.1007 11.981C14.33 12.2103 14.674 12.2103 14.9033 11.981C15.2473 11.6371 15.3046 11.0065 15.018 10.6626L14.9606 10.4906Z" fill="#010101"/>
<path d="M6.07467 20.8667C6.07467 20.8667 6.18933 17.5419 7.10659 16.1661C9.3424 15.4782 13.2981 14.9623 17.2538 14.8477H18.0564H18.4577H19.2603C23.2159 14.9623 27.1716 15.4782 29.4074 16.2234C30.3247 17.5992 30.4393 20.9241 30.4393 20.9241C30.4393 20.9241 32.2739 22.9877 19.7762 23.217C19.3749 23.217 18.9736 23.217 18.6296 23.217C18.515 23.217 18.4003 23.217 18.2857 23.217C18.2857 23.217 18.2857 23.217 18.2283 23.217C18.2283 23.217 18.2283 23.217 18.171 23.217C18.0564 23.217 17.9417 23.217 17.827 23.217C17.4257 23.217 17.0818 23.217 16.6805 23.217C4.18282 22.9877 6.01734 20.9241 6.01734 20.9241L6.07467 20.8667Z" fill="url(#paint0_linear_10846_32240)"/>
<path d="M18.4003 23.1021C10.7756 23.1021 7.04924 21.2677 4.69877 19.9492C4.64144 22.0129 5.5587 24.6498 9.45705 26.8282C13.642 29.1785 16.6805 29.809 18.4576 29.9237C20.1775 29.809 23.2732 29.1785 27.4582 26.8282C31.3566 24.6498 32.2738 22.0129 32.2165 19.9492C29.8087 21.2677 26.0824 23.1021 18.4576 23.1021H18.4003Z" fill="#4B2D74"/>
<path d="M7.04901 16.1085C7.62229 15.9365 8.36756 15.7646 9.17016 15.5926C11.406 15.134 14.3871 14.8474 17.3682 14.79H19.2027C23.1584 14.9047 27.1714 15.4206 29.4072 16.1658L29.8085 17.0257C21.2665 14.6181 7.62229 17.1977 7.62229 17.1977C7.16366 18.1722 6.99168 21.2104 6.99168 21.2104H6.87702L6.01709 20.9238C6.01709 20.9238 6.13175 17.5989 7.04901 16.2232V16.1085Z" fill="#B5653F"/>
<mask id="mask1_10846_32240" style="mask-type:luminance" maskUnits="userSpaceOnUse" x="8" y="14" width="10" height="9">
<path d="M9.22778 21.2105C9.22778 21.2105 12.6102 22.529 17.3111 22.185C17.3111 22.185 17.4831 18.4589 17.2538 17.943C17.0245 17.4271 15.5913 15.7647 15.5913 15.7647C15.5913 15.7647 13.3554 14.8475 13.1835 14.8475C13.0115 14.8475 8.82648 13.873 8.59717 17.3698" fill="white"/>
</mask>
<g mask="url(#mask1_10846_32240)">
<path d="M10.0303 22.4717C10.0303 22.4717 7.85179 18.287 11.3488 16.1087C14.7312 14.045 17.8843 18.8602 16.7377 22.1851C16.7377 22.1851 16.7377 22.1851 16.6231 22.1851C14.0433 22.8156 12.1514 22.8156 10.0303 22.4144V22.4717Z" fill="white"/>
<path d="M16.7948 22.1274C17.9987 18.7452 14.8457 13.93 11.4059 15.707C8.08087 17.4268 9.80073 22.4713 9.85806 22.414H10.1447C10.1447 22.4713 9.62874 19.7771 10.1447 18.4013C10.6033 17.0255 12.1512 16.223 13.6417 16.4523C15.8776 16.8535 16.6228 19.6051 16.6802 19.949C16.7948 20.4076 16.7948 20.7516 16.7948 21.0382" fill="#010101"/>
<path d="M14.8457 19.2614C14.0431 18.2295 12.4953 18.5735 12.094 19.7773C11.6927 20.9811 12.3806 22.2996 12.3806 22.2996L12.5526 22.5289C13.2405 22.7582 15.3044 22.6435 15.4763 22.5862C15.591 21.669 15.7057 20.2932 14.9031 19.2614H14.8457Z" fill="#010101"/>
<path d="M13.4557 20.9628C13.771 20.933 13.9902 20.5256 13.9456 20.0528C13.9009 19.5801 13.6091 19.2209 13.2939 19.2507C12.9787 19.2805 12.7594 19.688 12.8041 20.1607C12.8488 20.6335 13.1405 20.9926 13.4557 20.9628Z" fill="white"/>
</g>
<mask id="mask2_10846_32240" style="mask-type:luminance" maskUnits="userSpaceOnUse" x="19" y="14" width="9" height="9">
<path d="M27.1716 21.2105C27.1716 21.2105 23.7892 22.529 19.0883 22.185C19.0883 22.185 18.9163 18.4589 19.1456 17.943C19.3749 17.4271 20.8081 15.7647 20.8081 15.7647C20.8081 15.7647 23.044 14.8475 23.2159 14.8475C23.3879 14.8475 27.5729 13.873 27.8022 17.3698" fill="white"/>
</mask>
<g mask="url(#mask2_10846_32240)">
<path d="M26.5412 22.4717C26.5412 22.4717 28.7197 18.287 25.2227 16.1087C21.8403 14.045 18.6872 18.8602 19.8338 22.1851C20.9803 25.5099 19.8338 22.1851 19.9484 22.1851C22.5282 22.8156 24.4201 22.8156 26.5412 22.4144V22.4717Z" fill="white"/>
<path d="M19.8337 22.1274C18.6298 18.7452 21.7829 13.93 25.2226 15.707C28.5476 17.4268 26.8278 22.4713 26.7705 22.414H26.4838C26.4838 22.4713 26.9998 19.7771 26.4838 18.4013C26.0252 17.0255 24.4773 16.223 22.9868 16.4523C20.7509 16.8535 20.0057 19.6051 19.9483 19.949C19.8337 20.4076 19.8337 20.7516 19.8337 21.0382" fill="#010101"/>
<path d="M21.783 19.2614C22.5856 18.2295 24.1335 18.5735 24.5348 19.7773C24.9361 20.9811 24.2481 22.2996 24.2481 22.2996L24.0761 22.5289C23.3882 22.7582 21.3243 22.6435 21.1524 22.5862C21.0377 21.669 20.923 20.2932 21.7257 19.2614H21.783Z" fill="#010101"/>
<path d="M22.5309 20.9697C22.8461 20.9399 23.0654 20.5325 23.0208 20.0597C22.9761 19.5869 22.6843 19.2278 22.3691 19.2576C22.0539 19.2874 21.8346 19.6948 21.8793 20.1676C21.924 20.6404 22.2157 20.9995 22.5309 20.9697Z" fill="white"/>
</g>
<path d="M14.7886 25.2806C14.2727 25.2806 13.6994 25.1659 13.1834 25.1086C12.6675 24.994 12.0942 24.8793 11.5782 24.65C11.0623 24.4207 10.6036 24.1914 10.145 23.7901C9.7437 23.4462 9.39972 22.9876 9.17041 22.4717C9.51438 22.873 9.85835 23.2742 10.317 23.5608C10.7183 23.8475 11.2342 24.1341 11.6929 24.3061C12.1515 24.5354 12.6675 24.65 13.1834 24.822C13.6994 24.994 14.2153 25.1086 14.7313 25.2806H14.7886Z" fill="#271550"/>
<path d="M9.05586 21.0961C9.05586 21.0961 8.53991 20.4082 7.85196 20.4082C7.16402 20.4082 7.336 20.9814 7.336 20.9814C7.336 20.9814 8.31059 20.6375 9.17052 21.3254" fill="#010101"/>
<path d="M9.11321 22.0128C9.11321 22.0128 8.59725 21.4396 8.42527 21.2103C8.31061 20.981 8.19595 20.8664 8.19595 20.8664C7.96664 20.7517 8.02397 21.325 8.4826 21.8409C8.76924 22.1275 9.11321 22.0702 9.11321 22.0702V22.0128Z" fill="#010101"/>
</g>
<path d="M17.8867 0.555664C27.5846 0.555761 35.446 8.41715 35.4463 18.1143C35.4463 27.8116 27.5848 35.6737 17.8867 35.6738C8.18857 35.6738 0.326172 27.8116 0.326172 18.1143C0.326428 8.41709 8.18873 0.555664 17.8867 0.555664Z" stroke="#4C2D74" stroke-width="0.653061" stroke-miterlimit="10"/>
<defs>
<linearGradient id="paint0_linear_10846_32240" x1="17.1964" y1="27.803" x2="19.1453" y2="15.6502" gradientUnits="userSpaceOnUse">
<stop stop-color="#F5D7B8"/>
<stop offset="1" stop-color="#D2966D"/>
</linearGradient>
</defs>
</svg>
