<svg width="36" height="36" viewBox="0 0 36 36" fill="none" xmlns="http://www.w3.org/2000/svg">
<g clip-path="url(#clip0_10846_31918)">
<mask id="mask0_10846_31918" style="mask-type:luminance" maskUnits="userSpaceOnUse" x="0" y="0" width="36" height="36">
<path d="M18.0002 35.6059C27.6928 35.6059 35.5502 27.7485 35.5502 18.0559C35.5502 8.36326 27.6928 0.505859 18.0002 0.505859C8.3076 0.505859 0.450195 8.36326 0.450195 18.0559C0.450195 27.7485 8.3076 35.6059 18.0002 35.6059Z" fill="white"/>
</mask>
<g mask="url(#mask0_10846_31918)">
<path d="M42.1317 -9.39355H-7.03076V45.2252H42.1317V-9.39355Z" fill="#92CA62"/>
<path d="M17.8315 46.3506C23.1128 46.3506 27.394 41.6915 27.394 35.9443C27.394 30.1971 23.1128 25.5381 17.8315 25.5381C12.5503 25.5381 8.26904 30.1971 8.26904 35.9443C8.26904 41.6915 12.5503 46.3506 17.8315 46.3506Z" fill="#704B99"/>
<path d="M18.4507 30.8254L16.4819 35.9441L20.1944 35.7191L22.2194 30.1504" fill="#8B6BAB"/>
<path d="M18.2259 32.175C20.649 32.175 22.6134 30.6388 22.6134 28.7437C22.6134 26.8487 20.649 25.3125 18.2259 25.3125C15.8027 25.3125 13.8384 26.8487 13.8384 28.7437C13.8384 30.6388 15.8027 32.175 18.2259 32.175Z" fill="#4B2D74"/>
<path d="M10.9692 34.7627L12.6005 31.1064L13.4442 34.1439" fill="#4B2D74"/>
<path d="M24.8628 34.7627L23.1753 31.1064L22.3315 34.1439" fill="#4B2D74"/>
<path d="M15.9188 6.18726C15.9188 6.18726 14.1188 5.45601 12.1501 6.97476C10.1813 8.49351 9.0001 9.67476 6.9751 10.0123C6.9751 10.0123 5.4001 9.05601 5.2876 7.14351C5.2876 7.14351 8.26885 7.76226 10.5751 5.84976C10.8563 5.62476 11.0813 5.45601 11.4188 5.28726C12.3751 4.78101 14.3438 4.10601 16.3126 5.68101L15.9188 6.13101V6.18726Z" fill="#010101"/>
<path d="M17.6066 5.90671C17.6066 5.90671 17.0441 1.74421 16.0879 1.46296C15.1316 1.18171 12.5441 2.53171 10.5754 1.85671C10.5754 1.85671 6.75039 4.61296 5.11914 5.00671C5.11914 5.00671 6.97539 7.25671 10.4066 6.30046C13.8379 5.34421 16.0316 5.11921 17.6066 5.85046V5.90671Z" fill="#4B2D74"/>
<path d="M34.594 18.1689C32.9065 10.9127 25.2565 5.6252 25.2565 5.6252C25.2565 5.6252 23.0627 4.1627 19.519 4.10645H17.044C13.5002 4.10645 11.3065 5.6252 11.3065 5.6252C11.3065 5.6252 3.65649 10.9127 1.96899 18.1689C0.562742 24.1877 11.9252 30.0939 17.8877 30.8814H18.7315C24.694 30.0939 36.0565 24.2439 34.6502 18.1689H34.594Z" fill="#704B99"/>
<path d="M24.5819 12.7693C24.6944 12.938 24.7506 13.1068 24.8069 13.2755C24.8069 13.388 24.8069 13.5005 24.8069 13.613C25.0319 13.6693 25.2569 13.7255 25.4819 13.7818C25.6506 13.5005 25.7631 13.2193 25.8194 12.938C25.9319 12.488 25.8194 12.038 25.7069 11.7568C25.5944 11.4193 25.4256 11.1943 25.2006 10.9693C24.8069 10.5193 24.3006 10.2943 23.7944 10.1255C23.5694 10.0693 23.2881 9.95676 23.0631 9.90051C22.6131 9.78801 22.0506 10.2943 21.8819 10.913C21.7131 11.4193 21.9381 11.8693 22.3319 11.8693C22.5569 11.8693 22.7819 11.8693 23.0069 11.8693C23.4569 11.9255 23.9069 12.038 24.2444 12.263C24.4131 12.3755 24.5256 12.488 24.6381 12.6568L24.5819 12.7693Z" fill="#010101"/>
<path d="M8.88818 7.7627C11.4194 9.16895 12.9944 11.9814 13.4444 14.7939C12.4319 12.1502 11.0819 9.5627 8.88818 7.7627Z" fill="#4B2D74"/>
<path d="M7.70674 8.94434C7.70674 8.94434 10.7442 10.6881 12.2067 15.5818V15.9193C12.2067 15.9193 12.0942 15.9193 11.7005 15.9193C11.4192 15.8631 9.22549 16.0318 9.22549 16.0318L8.77549 16.2006C7.98799 14.4568 6.91924 13.2756 6.07549 12.5443C5.56924 12.1506 5.51299 12.2068 5.06299 11.9818C5.06299 11.9818 6.86299 9.56309 7.70674 8.94434Z" fill="#4B2D74"/>
<path d="M18.2251 29.9248C19.9126 29.8123 22.9501 29.1936 27.0563 26.8873C33.4126 23.3436 31.7251 18.3936 30.7688 17.2123C29.8126 16.0311 24.5251 15.1873 19.1251 15.0186H17.3251C11.9251 15.1873 6.58132 16.0873 5.68132 17.2123C4.78132 18.3373 3.03757 23.2873 9.39382 26.8873C13.5001 29.1936 16.5376 29.8123 18.2251 29.9248Z" fill="#010101"/>
<path d="M14.9066 10.8002C14.7941 10.6877 14.7379 10.5752 14.6254 10.5189C14.3441 10.2377 13.9504 10.0127 13.5004 9.90017C13.0504 9.84392 12.6004 9.90017 12.2066 10.1252C11.8129 10.2939 11.4754 10.5752 11.1379 10.8564C10.8004 11.1377 10.5191 11.4752 10.2941 11.8127C10.1816 11.9814 10.0129 12.1502 9.90039 12.3752C9.90039 12.3752 10.2941 11.9814 10.2941 12.0377C10.1816 12.2627 10.0691 12.4314 9.95664 12.7127C9.95664 12.7689 9.90039 12.8814 9.90039 12.9377C10.1816 13.1064 10.5191 13.3314 10.8004 13.5002C10.8004 13.5002 10.8566 13.3877 10.9129 13.3314C11.0816 13.0502 11.2504 12.8814 11.5316 12.6002C11.7566 12.3189 11.5879 12.4877 11.8691 12.3189C12.3754 11.9252 12.8254 11.7002 13.2191 11.7564C13.5004 11.7564 13.7816 11.9252 14.0629 12.2627C14.2879 12.4877 14.6254 12.4877 14.8504 12.2627C15.1879 11.9252 15.2441 11.3064 14.9629 10.9689L14.9066 10.8002Z" fill="#010101"/>
<path d="M6.13187 20.9814C6.13187 20.9814 6.24437 17.7189 7.14437 16.3689C9.33812 15.6939 13.2194 15.1877 17.1006 15.0752H17.8881H18.2819H19.0694C22.9506 15.1877 26.8319 15.6939 29.0256 16.4252C29.9256 17.7752 30.0381 21.0377 30.0381 21.0377C30.0381 21.0377 31.8381 23.0627 19.5756 23.2877C19.1819 23.2877 18.7881 23.2877 18.4506 23.2877C18.3381 23.2877 18.2256 23.2877 18.1131 23.2877C18.1131 23.2877 18.1131 23.2877 18.0569 23.2877C18.0569 23.2877 18.0569 23.2877 18.0006 23.2877C17.8881 23.2877 17.7756 23.2877 17.6631 23.2877C17.2694 23.2877 16.9319 23.2877 16.5381 23.2877C4.27562 23.0627 6.07562 21.0377 6.07562 21.0377L6.13187 20.9814Z" fill="url(#paint0_linear_10846_31918)"/>
<path d="M18.2816 23.1748C10.8004 23.1748 7.14413 21.3748 4.83788 20.0811C4.78163 22.1061 5.68163 24.6936 9.50663 26.8311C13.6129 29.1373 16.5941 29.7561 18.3379 29.8686C20.0254 29.7561 23.0629 29.1373 27.1691 26.8311C30.9941 24.6936 31.8941 22.1061 31.8379 20.0811C29.4754 21.3748 25.8191 23.1748 18.3379 23.1748H18.2816Z" fill="#4B2D74"/>
<path d="M7.14385 16.3123C7.70635 16.1436 8.4376 15.9748 9.2251 15.8061C11.4188 15.3561 14.3438 15.0748 17.2688 15.0186H19.0688C22.9501 15.1311 26.8876 15.6373 29.0813 16.3686L29.4751 17.2123C21.0938 14.8498 7.70635 17.3811 7.70635 17.3811C7.25635 18.3373 7.0876 21.3186 7.0876 21.3186H6.9751L6.13135 21.0373C6.13135 21.0373 6.24385 17.7748 7.14385 16.4248V16.3123Z" fill="#B5653F"/>
<mask id="mask1_10846_31918" style="mask-type:luminance" maskUnits="userSpaceOnUse" x="8" y="14" width="10" height="9">
<path d="M9.22568 21.3194C9.22568 21.3194 12.5444 22.6131 17.1569 22.2756C17.1569 22.2756 17.3257 18.6194 17.1007 18.1131C16.8757 17.6069 15.4694 15.9756 15.4694 15.9756C15.4694 15.9756 13.2757 15.0756 13.1069 15.0756C12.9382 15.0756 8.83193 14.1194 8.60693 17.5506" fill="white"/>
</mask>
<g mask="url(#mask1_10846_31918)">
<path d="M10.0694 22.557C10.0694 22.557 7.93192 18.4507 11.3632 16.3132C14.6819 14.2882 17.7757 19.0132 16.6507 22.2757C16.6507 22.2757 16.6507 22.2757 16.5382 22.2757C14.0069 22.8945 12.1507 22.8945 10.0694 22.5007V22.557Z" fill="white"/>
<path d="M16.6506 22.2196C17.8318 18.9009 14.7381 14.1759 11.3631 15.9196C8.1006 17.6071 9.7881 22.5571 9.84435 22.5009H10.1256C10.1256 22.5571 9.61935 19.9134 10.1256 18.5634C10.5756 17.2134 12.0943 16.4259 13.5568 16.6509C15.7506 17.0446 16.4818 19.7446 16.5381 20.0821C16.6506 20.5321 16.6506 20.8696 16.6506 21.1509" fill="#010101"/>
<path d="M14.7384 19.4071C13.9509 18.3946 12.4321 18.7321 12.0384 19.9134C11.6446 21.0946 12.3196 22.3884 12.3196 22.3884L12.4884 22.6134C13.1634 22.8384 15.1884 22.7259 15.3571 22.6696C15.4696 21.7696 15.5821 20.4196 14.7946 19.4071H14.7384Z" fill="#010101"/>
<path d="M13.3458 21.1017C13.655 21.0724 13.8702 20.6727 13.8264 20.2087C13.7825 19.7448 13.4962 19.3924 13.187 19.4217C12.8777 19.4509 12.6625 19.8507 12.7064 20.3146C12.7502 20.7785 13.0365 21.1309 13.3458 21.1017Z" fill="white"/>
</g>
<mask id="mask2_10846_31918" style="mask-type:luminance" maskUnits="userSpaceOnUse" x="18" y="14" width="10" height="9">
<path d="M26.888 21.3194C26.888 21.3194 23.5692 22.6131 18.9567 22.2756C18.9567 22.2756 18.788 18.6194 19.013 18.1131C19.238 17.6069 20.6442 15.9756 20.6442 15.9756C20.6442 15.9756 22.838 15.0756 23.0067 15.0756C23.1755 15.0756 27.2817 14.1194 27.5067 17.5506" fill="white"/>
</mask>
<g mask="url(#mask2_10846_31918)">
<path d="M26.2132 22.557C26.2132 22.557 28.3507 18.4507 24.9195 16.3132C21.6007 14.2882 18.507 19.0132 19.632 22.2757C19.632 22.2757 19.632 22.2757 19.7445 22.2757C22.2757 22.8945 24.132 22.8945 26.2132 22.5007V22.557Z" fill="white"/>
<path d="M19.632 22.2196C18.4507 18.9009 21.5445 14.1759 24.9195 15.9196C28.182 17.6071 26.4945 22.5571 26.4382 22.5009H26.157C26.157 22.5571 26.6632 19.9134 26.157 18.5634C25.707 17.2134 24.1882 16.4259 22.7257 16.6509C20.532 17.0446 19.8007 19.7446 19.7445 20.0821C19.632 20.5321 19.632 20.8696 19.632 21.1509" fill="#010101"/>
<path d="M21.5445 19.4071C22.332 18.3946 23.8507 18.7321 24.2445 19.9134C24.6382 21.0946 23.9632 22.3884 23.9632 22.3884L23.7945 22.6134C23.1195 22.8384 21.0945 22.7259 20.9257 22.6696C20.8132 21.7696 20.7007 20.4196 21.4882 19.4071H21.5445Z" fill="#010101"/>
<path d="M22.2496 21.0529C22.5589 21.0236 22.774 20.6238 22.7302 20.1599C22.6863 19.696 22.4 19.3436 22.0908 19.3728C21.7815 19.4021 21.5663 19.8019 21.6102 20.2658C21.654 20.7297 21.9403 21.0821 22.2496 21.0529Z" fill="white"/>
</g>
<path d="M14.6819 25.3129C12.6007 25.2004 10.1257 24.6379 9.16943 22.5566C10.4632 24.3566 12.6569 24.7504 14.6819 25.3129Z" fill="#271550"/>
<path d="M9.05684 21.2063C9.05684 21.2063 8.55059 20.5312 7.87559 20.5312C7.20059 20.5312 7.36934 21.0938 7.36934 21.0938C7.36934 21.0938 8.32559 20.7562 9.16934 21.4312" fill="#010101"/>
<path d="M9.11302 22.1063C9.11302 22.1063 8.60677 21.5438 8.43802 21.3188C8.32552 21.0938 8.21302 20.9813 8.21302 20.9813C7.98802 20.8688 8.04427 21.4313 8.49427 21.9376C8.77552 22.2188 9.11302 22.1626 9.11302 22.1626V22.1063Z" fill="#010101"/>
<path d="M41.9628 -9.4502H-7.19971V45.1686H41.9628V-9.4502Z" fill="#D89BC5"/>
<path d="M26.1004 26.6621C26.1004 26.6621 22.6129 27.3371 22.2192 27.6184C21.4317 28.1246 22.5004 30.2059 23.4004 30.3184C23.4004 30.3184 26.4379 28.7996 27.5067 28.1809L26.1004 26.7184V26.6621Z" fill="#4B2D74"/>
<path d="M29.1941 25.5367C29.1941 25.5367 28.2378 26.043 25.7066 26.493C25.7066 26.493 25.4816 28.1242 27.0003 29.0805C27.3378 29.418 29.7003 27.168 30.2066 26.6617C30.2066 26.6617 29.5316 26.4367 29.1941 25.4805V25.5367Z" fill="#5A2F88"/>
<path d="M29.3628 25.9872C29.3628 25.9872 29.0815 24.5809 28.4628 24.5247C27.844 24.4684 27.7315 25.4809 28.294 26.7184C28.6315 27.4497 29.644 27.1684 29.3628 26.0434V25.9872Z" fill="#704B99"/>
<path d="M31.6692 24.0183C31.6692 24.0183 32.5692 24.2433 32.0067 25.5933C31.4442 26.9433 30.713 26.9995 30.3755 27.1683C30.038 27.337 28.5192 27.4495 28.2942 26.4933C28.013 25.1433 28.8005 25.537 29.5317 24.9183C30.263 24.2995 31.2192 23.6808 31.6692 24.0183Z" fill="#704B99"/>
<path d="M9.90039 26.6621C9.90039 26.6621 13.3879 27.3371 13.7816 27.6184C14.5691 28.1246 13.5004 30.2059 12.6004 30.3184C12.6004 30.3184 9.56289 28.7996 8.49414 28.1809L9.90039 26.7184V26.6621Z" fill="#4B2D74"/>
<path d="M6.75029 25.5367C6.75029 25.5367 7.70654 26.043 10.2378 26.493C10.2378 26.493 10.4628 28.1242 8.94404 29.0805C8.60654 29.418 6.24404 27.168 5.73779 26.6617C5.73779 26.6617 6.41279 26.4367 6.75029 25.4805V25.5367Z" fill="#5A2F88"/>
<path d="M6.58148 25.9872C6.58148 25.9872 6.86273 24.5809 7.48148 24.5247C8.10023 24.4684 8.21273 25.4809 7.65023 26.7184C7.31273 27.4497 6.30023 27.1684 6.58148 26.0434V25.9872Z" fill="#704B99"/>
<path d="M4.33153 24.0183C4.33153 24.0183 3.43153 24.2433 3.99403 25.5933C4.55653 26.9433 5.28778 26.9995 5.62528 27.1683C5.96278 27.337 7.48153 27.4495 7.70653 26.4933C7.98778 25.1433 7.20028 25.537 6.46903 24.9183C5.73778 24.2995 4.78153 23.6808 4.33153 24.0183Z" fill="#704B99"/>
<path d="M18.2257 49.2752C21.674 49.2752 24.4694 43.5081 24.4694 36.3939C24.4694 29.2798 21.674 23.5127 18.2257 23.5127C14.7774 23.5127 11.9819 29.2798 11.9819 36.3939C11.9819 43.5081 14.7774 49.2752 18.2257 49.2752Z" fill="#704B99"/>
<path d="M18.3941 28.9689L15.8066 35.7752H18.0004L20.7566 28.2939" fill="#8B6BAB"/>
<path d="M18.0563 28.9682C20.1378 28.9682 21.8251 27.6586 21.8251 26.0432C21.8251 24.4277 20.1378 23.1182 18.0563 23.1182C15.9749 23.1182 14.2876 24.4277 14.2876 26.0432C14.2876 27.6586 15.9749 28.9682 18.0563 28.9682Z" fill="#4B2D74"/>
<path d="M16.0876 6.74984C16.0876 6.74984 14.5688 6.13109 12.8813 7.42484C11.1938 8.71859 10.2376 9.73109 8.4376 10.0123C8.4376 10.0123 7.0876 9.16859 6.9751 7.59359C6.9751 7.59359 9.50635 8.15609 11.4751 6.52484C11.7001 6.35609 11.9251 6.18734 12.2063 6.01859C13.0501 5.56859 14.6813 5.00609 16.3688 6.35609L16.0313 6.74984H16.0876Z" fill="#010101"/>
<path d="M17.5503 6.52453C17.5503 6.52453 17.044 2.98078 16.2565 2.75578C15.469 2.53078 13.219 3.65578 11.5315 3.09328C11.5315 3.09328 8.26904 5.45578 6.86279 5.79328C6.86279 5.79328 8.43779 7.70578 11.419 6.91828C14.344 6.13078 16.2003 5.90578 17.5503 6.52453Z" fill="#4B2D74"/>
<path d="M32.063 16.9877C30.6005 10.8002 24.0755 6.24395 24.0755 6.24395C24.0755 6.24395 22.2193 5.00645 19.1818 4.9502H17.0443C14.0068 4.9502 12.1505 6.24395 12.1505 6.24395C12.1505 6.24395 5.6255 10.8002 4.163 16.9877C2.98175 22.1627 12.6568 27.1689 17.7755 27.8439H18.5068C23.6255 27.1689 33.3005 22.1627 32.1193 16.9877H32.063Z" fill="#704B99"/>
<path d="M23.5128 12.3743C23.6253 12.5431 23.6253 12.6556 23.6816 12.8243C23.6816 12.8806 23.6816 12.9931 23.6816 13.1056C23.8503 13.1056 24.0753 13.2181 24.2441 13.2743C24.3566 13.0493 24.4691 12.8243 24.5253 12.5431C24.5816 12.1493 24.5253 11.8118 24.4128 11.5306C24.3003 11.2493 24.1878 11.0243 23.9628 10.8556C23.6253 10.5181 23.1753 10.2931 22.7816 10.1243C22.5566 10.0681 22.3316 10.0118 22.1066 9.95555C21.7128 9.8993 21.2628 10.2931 21.0941 10.7993C20.9816 11.2493 21.0941 11.5868 21.4878 11.5868C21.7128 11.5868 21.8816 11.5868 22.1066 11.5868C22.5003 11.6431 22.8378 11.7556 23.1191 11.9243C23.2316 12.0368 23.3441 12.1493 23.4566 12.2618L23.5128 12.3743Z" fill="#010101"/>
<path d="M10.0688 8.09961C12.2626 9.28086 13.5563 11.6996 14.0063 14.1184C13.1063 11.8684 11.9813 9.67461 10.0688 8.09961Z" fill="#4B2D74"/>
<path d="M9.05674 9.1123C9.05674 9.1123 11.6442 10.6311 12.938 14.7936V15.0748C12.938 15.0748 12.8255 15.0748 12.488 15.0748C12.2067 15.0186 10.3505 15.1311 10.3505 15.1311L9.95674 15.2998C9.28174 13.8373 8.38174 12.7686 7.65049 12.2061C7.20049 11.8686 7.14424 11.9248 6.75049 11.6998C6.75049 11.6998 8.32549 9.61855 9.05674 9.1123Z" fill="#4B2D74"/>
<path d="M18.0565 27.0002C19.519 26.8877 22.0503 26.3814 25.5941 24.4127C31.0503 21.3752 29.5878 17.1564 28.8003 16.1439C28.0128 15.1877 23.4565 14.4002 18.844 14.2314H17.269C12.6565 14.3439 8.1003 15.1314 7.3128 16.1439C6.5253 17.1564 5.0628 21.3752 10.5191 24.4127C14.0065 26.3814 16.594 26.8877 18.0565 27.0002Z" fill="#010101"/>
<path d="M15.1876 10.6869C15.1313 10.5744 15.0188 10.5182 14.9626 10.4619C14.6813 10.2369 14.4001 10.0119 14.0063 9.95566C13.6126 9.89941 13.2188 9.95566 12.8813 10.1244C12.5438 10.2932 12.2626 10.5182 11.9813 10.7432C11.7001 10.9682 11.4751 11.2494 11.2501 11.5307C11.1376 11.6432 11.0251 11.8119 10.9126 11.9807C10.9126 11.9807 11.2501 11.6432 11.2501 11.6994C11.1376 11.8682 11.0251 12.0369 10.9688 12.2619C10.9688 12.3182 10.9688 12.3744 10.9126 12.4307C11.1938 12.5994 11.4188 12.7682 11.7001 12.9369C11.7001 12.9369 11.7001 12.8244 11.7563 12.8244C11.9251 12.5994 12.0376 12.4307 12.2626 12.2057C12.4876 11.9807 12.3188 12.0932 12.5438 11.9244C12.9938 11.5869 13.3876 11.3619 13.7251 11.4182C13.9501 11.4182 14.1751 11.5869 14.4563 11.8119C14.6251 11.9807 14.9063 11.9807 15.1313 11.8119C15.4126 11.5307 15.4688 11.0244 15.2438 10.7432L15.1876 10.6869Z" fill="#010101"/>
<path d="M7.76292 19.3496C7.76292 19.3496 7.87542 16.5371 8.66292 15.4121C10.5192 14.7934 13.8379 14.3996 17.1567 14.2871H17.8317H18.1692H18.8442C22.1629 14.3996 25.4817 14.7934 27.3379 15.4121C28.1254 16.5371 28.2379 19.3496 28.2379 19.3496C28.2379 19.3496 29.8129 21.0934 19.2942 21.2621C18.9567 21.2621 18.6192 21.2621 18.3379 21.2621C18.2254 21.2621 18.1692 21.2621 18.0567 21.2621C18.0567 21.2621 18.0567 21.2621 18.0004 21.2621C18.0004 21.2621 18.0004 21.2621 17.9442 21.2621C17.8317 21.2621 17.7754 21.2621 17.6629 21.2621C17.3254 21.2621 17.0442 21.2621 16.7067 21.2621C6.24417 21.0934 7.76292 19.3496 7.76292 19.3496Z" fill="url(#paint1_linear_10846_31918)"/>
<path d="M18.113 21.2619C11.7568 21.2619 8.60676 19.7432 6.63801 18.6182C6.58176 20.3619 7.36926 22.5557 10.6318 24.4119C14.1193 26.3807 16.7068 26.8869 18.1693 26.9994C19.6318 26.8869 22.163 26.3807 25.7068 24.4119C28.9693 22.6119 29.7568 20.3619 29.7005 18.6182C27.6755 19.6869 24.5255 21.2619 18.1693 21.2619H18.113Z" fill="#4B2D74"/>
<path d="M8.60654 15.4121C9.11279 15.2434 9.67529 15.1309 10.3503 14.9621C12.2065 14.5684 14.7378 14.3434 17.2128 14.2871H18.7878C22.1065 14.3996 25.4815 14.7934 27.3378 15.4121L27.6753 16.1434C20.4753 14.1184 9.05654 16.2559 9.05654 16.2559C8.66279 17.0996 8.49404 19.6309 8.49404 19.6309H8.43779L7.70654 19.3496C7.70654 19.3496 7.81904 16.5371 8.60654 15.4121Z" fill="#B5653F"/>
<mask id="mask3_10846_31918" style="mask-type:luminance" maskUnits="userSpaceOnUse" x="9" y="14" width="9" height="7">
<path d="M10.4065 19.6874C10.4065 19.6874 13.2753 20.8124 17.2128 20.5311C17.2128 20.5311 17.3815 17.4374 17.2128 16.9874C17.044 16.5374 15.8065 15.1311 15.8065 15.1311C15.8065 15.1311 13.894 14.3436 13.7815 14.3436C13.669 14.3436 10.1253 13.4999 9.95654 16.4811" fill="white"/>
</mask>
<g mask="url(#mask3_10846_31918)">
<path d="M11.0812 20.6999C11.0812 20.6999 9.225 17.1562 12.2062 15.3562C15.075 13.6124 17.7187 17.6624 16.7062 20.4749C15.6937 23.2874 16.7062 20.4749 16.65 20.4749C14.4562 20.9812 12.8812 20.9812 11.1375 20.6437L11.0812 20.6999Z" fill="white"/>
<path d="M16.7064 20.4747C17.7189 17.6622 15.0751 13.6122 12.2064 15.0747C9.45012 16.5372 10.8564 20.7559 10.9126 20.6997H11.1376C11.1376 20.6997 10.7439 18.5059 11.1376 17.3247C11.5314 16.1997 12.8251 15.4684 14.0626 15.6934C15.9189 16.0309 16.5376 18.3372 16.5939 18.6184C16.6501 18.9559 16.7064 19.2934 16.7064 19.5184" fill="#010101"/>
<path d="M15.0752 18.056C14.4002 17.156 13.1065 17.4373 12.769 18.506C12.4315 19.5185 12.994 20.6435 12.994 20.6435L13.1065 20.8685C13.669 21.0935 15.4127 20.9248 15.5252 20.9248C15.5815 20.1935 15.7502 19.0123 15.019 18.1123L15.0752 18.056Z" fill="#010101"/>
<path d="M13.9255 19.4801C14.1729 19.4567 14.3427 19.1118 14.3047 18.7097C14.2667 18.3076 14.0353 18.0007 13.7878 18.0241C13.5404 18.0474 13.3707 18.3923 13.4087 18.7944C13.4467 19.1965 13.6781 19.5035 13.9255 19.4801Z" fill="white"/>
</g>
<mask id="mask4_10846_31918" style="mask-type:luminance" maskUnits="userSpaceOnUse" x="18" y="14" width="8" height="7">
<path d="M25.4257 19.6874C25.4257 19.6874 22.5569 20.8124 18.6194 20.5311C18.6194 20.5311 18.4507 17.4374 18.6194 16.9874C18.7882 16.5374 20.0257 15.1311 20.0257 15.1311C20.0257 15.1311 21.9382 14.3436 22.0507 14.3436C22.1632 14.3436 25.7069 13.4999 25.8757 16.4811" fill="white"/>
</mask>
<g mask="url(#mask4_10846_31918)">
<path d="M24.9196 20.6999C24.9196 20.6999 26.7759 17.1562 23.7946 15.3562C20.9259 13.6124 18.2821 17.6624 19.2946 20.4749C19.2946 20.4749 19.2946 20.4749 19.3509 20.4749C21.5446 20.9812 23.1196 20.9812 24.8634 20.6437L24.9196 20.6999Z" fill="white"/>
<path d="M19.2946 20.4747C18.2821 17.6622 20.9259 13.6122 23.7946 15.0747C26.5509 16.5372 25.1446 20.7559 25.0884 20.6997H24.8634C24.8634 20.6997 25.2571 18.5059 24.8634 17.3247C24.4696 16.1997 23.1759 15.4684 21.9384 15.6934C20.0821 16.0309 19.4634 18.3372 19.4071 18.6184C19.3509 18.9559 19.2946 19.2934 19.2946 19.5184" fill="#010101"/>
<path d="M20.9258 18.056C21.6008 17.156 22.8946 17.4373 23.2321 18.506C23.5696 19.5185 23.0071 20.6435 23.0071 20.6435L22.8946 20.8685C22.3321 21.0935 20.5883 20.9248 20.4758 20.9248C20.4196 20.1935 20.2508 19.0123 20.9821 18.1123L20.9258 18.056Z" fill="#010101"/>
<path d="M21.4865 19.4967C21.7339 19.4733 21.9037 19.1284 21.8657 18.7263C21.8277 18.3243 21.5963 18.0173 21.3489 18.0407C21.1015 18.064 20.9317 18.4089 20.9697 18.811C21.0077 19.2131 21.2391 19.5201 21.4865 19.4967Z" fill="white"/>
</g>
<path d="M15.0188 23.1184C13.2751 23.0059 11.1376 22.5559 10.3501 20.7559C11.4751 22.2746 13.3313 22.6121 15.0188 23.1184Z" fill="#271550"/>
<path d="M10.2379 19.5748C10.2379 19.5748 9.84416 18.9561 9.22541 18.9561C8.60666 18.9561 8.77542 19.4623 8.77542 19.4623C8.77542 19.4623 9.56291 19.1811 10.2942 19.7436" fill="#010101"/>
<path d="M10.294 20.3628C10.294 20.3628 9.84403 19.9128 9.73153 19.6878C9.61903 19.519 9.50653 19.4065 9.50653 19.4065C9.33778 19.294 9.33778 19.8003 9.73153 20.2503C9.95653 20.5315 10.294 20.4753 10.294 20.4753V20.3628Z" fill="#010101"/>
</g>
<path d="M18 1.2002C27.2782 1.2002 34.7997 8.72185 34.7998 18C34.7998 27.2782 27.2782 34.7998 18 34.7998C8.72185 34.7997 1.2002 27.2782 1.2002 18C1.2003 8.72192 8.72192 1.2003 18 1.2002Z" stroke="#4C2D74" stroke-width="1.50052" stroke-miterlimit="10"/>
</g>
<defs>
<linearGradient id="paint0_linear_10846_31918" x1="17.0444" y1="27.7877" x2="19.0131" y2="15.8627" gradientUnits="userSpaceOnUse">
<stop stop-color="#F5D7B8"/>
<stop offset="1" stop-color="#D2966D"/>
</linearGradient>
<linearGradient id="paint1_linear_10846_31918" x1="17.0442" y1="25.2559" x2="18.7317" y2="15.0184" gradientUnits="userSpaceOnUse">
<stop stop-color="#F5D7B8"/>
<stop offset="1" stop-color="#D2966D"/>
</linearGradient>
<clipPath id="clip0_10846_31918">
<rect width="36" height="36" fill="white"/>
</clipPath>
</defs>
</svg>
