<svg width="36" height="36" viewBox="0 0 36 36" fill="none" xmlns="http://www.w3.org/2000/svg">
<g clip-path="url(#clip0_10846_32052)">
<mask id="mask0_10846_32052" style="mask-type:luminance" maskUnits="userSpaceOnUse" x="0" y="0" width="36" height="36">
<path d="M18.0002 35.5502C27.6928 35.5502 35.5502 27.6928 35.5502 18.0002C35.5502 8.3076 27.6928 0.450195 18.0002 0.450195C8.3076 0.450195 0.450195 8.3076 0.450195 18.0002C0.450195 27.6928 8.3076 35.5502 18.0002 35.5502Z" fill="white"/>
</mask>
<g mask="url(#mask0_10846_32052)">
<path d="M38.1938 -10.0684H-10.9688V44.5504H38.1938V-10.0684Z" fill="#9CDAEA"/>
<path d="M9.4502 30.4314C9.4502 30.4314 15.0189 30.3752 18.2252 29.5314L16.9314 26.8877C16.9314 26.8877 12.0377 28.4064 9.84395 28.5189" fill="#4B2D74"/>
<path d="M8.83096 27.1689C8.83096 27.1689 9.56221 27.5064 9.95596 28.1814C10.3497 28.8564 10.6872 29.5314 10.3497 30.2627C10.0122 30.9939 9.39346 31.6689 8.60596 31.5564" fill="#4B2D74"/>
<path d="M9.50614 28.4067C9.50614 28.4067 9.61864 27.6192 9.16864 27.338C8.71864 27.0567 7.70614 26.1567 7.76239 25.6505C7.81864 25.1442 6.97489 24.9192 6.58114 25.538C6.18739 26.1567 6.01864 27.0005 7.08739 27.338C8.21239 27.6755 7.81864 27.5067 7.76239 28.0692C7.70614 28.6317 8.32489 29.138 8.32489 29.138" fill="#4B2D74"/>
<path d="M8.86021 31.5336C9.68131 31.1628 9.95312 29.9901 9.46732 28.9142C8.98153 27.8382 7.92208 27.2666 7.10098 27.6373C6.27989 28.0081 6.00807 29.1808 6.49387 30.2567C6.97967 31.3326 8.03911 31.9043 8.86021 31.5336Z" fill="#704B99"/>
<path d="M27.2812 32.8501C26.5499 37.4063 23.7937 40.9501 20.4749 40.6688C17.1562 40.3313 14.2312 37.9688 14.6812 33.3563C15.1312 28.7438 19.1812 22.3313 22.1062 23.9626C25.4812 25.8188 27.7874 30.0376 27.3374 32.9063L27.2812 32.8501Z" fill="#704B99"/>
<path d="M20.6436 25.8752L15.5811 35.8877L18.6748 34.5939L24.0748 24.0752" fill="#8B6BAB"/>
<path d="M22.3315 25.2004C21.7128 26.8317 19.8565 28.0692 18.1128 27.9004C16.369 27.7317 15.469 26.3254 16.0878 24.6379C16.7065 22.9504 18.5628 21.7692 20.3065 21.9379C22.0503 22.1067 22.9503 23.5129 22.3315 25.2004Z" fill="#4B2D74"/>
<path d="M25.3687 31.1064L24.0187 27.7314L23.3999 33.7502" fill="#4B2D74"/>
<path d="M30.9937 7.59414C30.9937 7.59414 25.875 9.22539 22.7812 5.96289L21.375 6.46914C21.375 6.46914 22.5563 8.04414 23.85 8.49414C25.1438 8.94414 26.6063 11.5316 31.6125 9.33789C31.6125 9.33789 31.5563 8.21289 30.9375 7.65039L30.9937 7.59414Z" fill="#181C2A"/>
<path d="M29.0246 3.43145L30.1496 6.80645C30.1496 6.80645 26.4934 8.15645 20.1934 5.68145L19.6309 2.75645C19.6309 2.75645 20.9246 2.08145 21.4871 1.5752C21.4871 1.5752 25.5934 3.2627 28.9684 3.43145H29.0246Z" fill="#3C305D"/>
<path d="M20.2499 3.319C20.2499 3.319 28.0686 5.85025 31.3311 11.5315C34.3124 16.7065 24.4124 25.594 19.9124 26.7753C15.2999 27.9565 10.1249 27.169 4.49988 20.3065C4.16238 19.9128 3.88113 19.4628 3.93738 18.9565C4.27488 16.7065 5.73738 10.069 10.1811 6.18775C15.2999 1.8565 20.1936 3.37525 20.1936 3.37525L20.2499 3.319Z" fill="#704B99"/>
<path d="M5.00664 20.0819C9.00039 24.9756 13.6691 26.2694 17.1566 26.4944C17.1566 26.4944 20.3629 26.1569 24.8066 21.3756C29.0254 16.8194 26.4379 13.0506 25.3691 12.3194C23.6816 11.1381 12.8254 13.2756 8.32539 16.0881C6.18789 17.3819 5.17539 18.5631 4.95039 19.2944C4.72539 20.0256 5.06289 20.0819 5.06289 20.0819H5.00664Z" fill="#010101"/>
<path d="M7.76263 16.6506C7.98763 16.4819 7.98763 16.3131 8.26888 16.0881C12.8251 13.2756 23.6814 11.1381 25.3126 12.3194C26.3814 13.1069 29.0251 16.8194 24.7501 21.3756C20.3626 26.1006 16.9876 26.4944 16.9876 26.4944C15.1876 26.3819 12.2626 25.5381 10.2939 24.3569C10.2939 24.3569 10.2939 24.0194 9.05638 23.4569C7.87513 22.9506 9.05638 20.8131 8.49388 19.5756C7.93138 18.3381 7.36888 17.8319 7.70638 16.5381L7.76263 16.6506Z" fill="url(#paint0_linear_10846_32052)"/>
<path d="M26.2686 17.0439C26.2686 17.0439 25.1436 13.9502 23.6249 12.8814C23.6249 12.8814 19.2936 12.9939 14.7374 14.2314C9.61861 15.5814 7.64986 17.2689 7.64986 17.2689C7.64986 17.2689 7.42486 16.6502 7.53736 16.5939C7.76236 16.4814 13.2186 12.2627 23.8499 11.9814C23.8499 11.9814 25.0311 12.0939 25.4811 12.4314C25.9311 12.7689 26.8311 14.2877 27.1686 15.4127C27.3936 15.6939 26.8311 16.5939 26.2124 17.0439H26.2686Z" fill="#B5653F"/>
<path d="M14.0625 8.88828C14.0625 8.77578 14.175 8.66328 14.2313 8.60703C14.4 8.32578 14.6813 8.04453 15.0188 7.87578C15.3563 7.70703 15.75 7.70703 16.0875 7.70703C16.4813 7.70703 16.8188 7.87578 17.1 8.04453C17.4375 8.21328 17.7188 8.38203 18 8.60703C18.1125 8.71953 18.2813 8.83203 18.45 8.94453C18.6188 9.05703 18.7313 9.22578 18.9 9.39453C18.9 9.39453 18.9563 9.50703 19.0125 9.56328C18.7875 9.78828 18.6188 10.0133 18.3938 10.2383C18.3938 10.2383 18.3375 10.182 18.2813 10.1258C18.1125 9.95703 17.8875 9.84453 17.6063 9.67578C17.325 9.50703 17.1 9.39453 16.875 9.28203C16.3688 9.11328 15.9188 9.00078 15.6375 9.11328C15.4125 9.16953 15.2438 9.39453 15.075 9.67578C14.9625 9.90078 14.6813 9.95703 14.4563 9.84453C14.1188 9.67578 13.95 9.16953 14.0625 8.83203V8.88828Z" fill="#010101"/>
<path d="M8.83105 12.2062C8.83105 12.375 8.83105 12.5437 8.83105 12.6562C8.83105 12.7125 8.83105 12.825 8.8873 12.9375C8.71855 13.05 8.5498 13.1625 8.38105 13.2187C8.2123 13.05 8.04355 12.825 7.93105 12.6C7.7623 12.2625 7.70605 11.8687 7.7623 11.6437C7.7623 11.3625 7.8748 11.0812 7.9873 10.8562C8.2123 10.4062 8.5498 10.125 8.94355 9.84372C9.1123 9.73122 9.3373 9.61872 9.50605 9.50622C9.84355 9.33747 10.4061 9.56247 10.6873 10.0125C10.9123 10.4062 10.8561 10.8 10.5186 10.8562C10.3498 10.9125 10.1248 10.9687 9.95606 11.0812C9.61856 11.25 9.28105 11.4187 9.05605 11.7C8.94355 11.8125 8.8873 11.9812 8.83105 12.15V12.2062Z" fill="#010101"/>
<path d="M22.6686 17.5502C22.6686 17.5502 23.1748 13.669 19.8561 13.1065C16.7061 12.6002 15.6373 17.269 17.4936 19.4627C17.4936 19.4627 17.4936 19.4627 17.6061 19.4627C19.7436 19.1252 21.2061 18.5627 22.6686 17.5502Z" fill="white"/>
<path d="M17.4374 19.4069C15.5249 17.2131 16.5936 12.5444 19.6874 12.8256C22.6686 13.1069 22.8374 17.4944 22.7249 17.4381L22.4436 17.6069C22.4436 17.6069 22.1061 15.3569 21.3749 14.4569C20.6436 13.5569 19.2936 13.3881 18.2249 14.0631C16.6499 15.0756 16.8749 17.4381 16.9311 17.6631C16.9311 18.0006 17.0436 18.3381 17.1561 18.5069" fill="#010101"/>
<path d="M19.1812 16.2007C19.4625 15.1319 20.7 14.9069 21.4312 15.6944C22.1062 16.4819 21.9937 17.6632 21.9937 17.6632V17.8882C21.5437 18.2819 19.9125 18.7882 19.8 18.8444C19.4625 18.1694 18.9 17.2132 19.1812 16.1444V16.2007Z" fill="#010101"/>
<path d="M21.2092 17.2772C21.4454 17.0755 21.3916 16.6247 21.089 16.2703C20.7863 15.916 20.3495 15.7923 20.1133 15.9941C19.877 16.1958 19.9309 16.6466 20.2335 17.001C20.5362 17.3553 20.973 17.479 21.2092 17.2772Z" fill="white"/>
<path d="M23.5688 5.17578C21.9938 6.52578 21.0938 8.43828 20.5312 10.407C20.8688 8.38203 21.825 6.35703 23.5688 5.17578Z" fill="#121520"/>
<path d="M21.8252 11.7004C22.9502 7.31289 25.4252 5.68164 25.4252 5.68164C25.8752 5.90664 26.2689 6.18789 26.8314 6.58164C27.4502 7.03164 28.0127 7.48164 28.4627 7.87539C28.0689 8.10039 27.6189 8.38164 27.1689 8.77539C26.4377 9.39414 25.5377 10.5191 24.9189 12.0941L24.5252 11.9254C24.5252 11.9254 22.5564 11.9254 22.3314 11.9254C21.9939 11.9254 21.8252 11.9254 21.8252 11.9254V11.6441V11.7004Z" fill="#4B2D74"/>
<path d="M14.7373 20.1939C14.7373 20.1939 14.2311 15.3001 10.9686 15.5251C8.32481 15.7501 8.83106 19.4064 10.2373 20.5314C11.3061 21.0939 13.8373 20.7564 14.7373 20.1376V20.1939Z" fill="white"/>
<path d="M23.6816 18.3377C23.6816 18.3377 24.4129 17.5502 24.5254 16.4814L24.7504 16.7064V17.6064C24.7504 17.6064 24.1316 18.1689 23.6816 18.3377Z" fill="#010101"/>
<path d="M23.7937 17.325C23.7937 17.325 24.6375 16.65 24.9187 16.7062C25.2 16.7625 25.3125 16.8187 25.3125 16.8187C25.3125 16.8187 25.425 15.975 25.2 16.0875C24.975 16.2 24.525 16.2 23.625 17.4375" fill="#010101"/>
<path d="M27.1124 14.7939C27.5062 16.4252 27.2812 18.5627 25.0874 21.0939C20.8687 25.9314 17.2687 26.5502 17.2687 26.5502C13.9499 26.3814 9.61865 25.1439 5.68115 20.9252C5.68115 20.9252 6.46865 21.0939 7.9874 21.3752C9.73115 21.7689 12.2062 21.8252 15.0187 21.2627C20.2499 20.1939 26.4374 17.2689 27.1124 14.7939Z" fill="#4B2D74"/>
<path d="M10.8559 15.3561C14.1747 15.0749 14.7934 20.0811 14.7934 20.0811V20.2499H14.6247C14.4559 18.8436 13.3872 17.4936 13.3872 17.4936C13.3309 17.3811 13.2184 17.2686 13.1622 17.2124C12.3184 16.3124 11.0247 15.8624 10.4059 16.4249C9.73092 16.9311 8.88717 18.2811 10.4059 20.6999L10.1809 20.5874C8.71842 19.2936 8.26842 15.5811 10.9122 15.3561H10.8559Z" fill="#010101"/>
<path d="M12.0375 18.1694C12.0375 18.1694 12.4875 17.3819 13.3313 17.4944C13.3313 17.4944 14.3438 17.9444 14.6813 20.1944C13.7813 20.7006 12.6 20.8131 12.6 20.8131V20.7006C12.5438 20.7006 11.4188 19.2944 11.9813 18.1131L12.0375 18.1694Z" fill="#010101"/>
<path d="M13.7626 19.5318C14.0062 19.3946 14.0305 18.9762 13.817 18.5972C13.6035 18.2183 13.233 18.0224 12.9894 18.1597C12.7458 18.2969 12.7214 18.7154 12.9349 19.0943C13.1484 19.4732 13.519 19.6691 13.7626 19.5318Z" fill="white"/>
<path d="M23.7937 18.6191C22.6687 20.1379 21.15 21.8254 19.125 21.9941C21.0375 21.4316 22.3875 19.9129 23.7937 18.6191Z" fill="#271550"/>
</g>
<path d="M18 1.2002C27.2782 1.2002 34.7997 8.72185 34.7998 18C34.7998 27.2782 27.2782 34.7998 18 34.7998C8.72185 34.7997 1.2002 27.2782 1.2002 18C1.2003 8.72192 8.72192 1.2003 18 1.2002Z" stroke="#4C2D74" stroke-width="1.50052" stroke-miterlimit="10"/>
</g>
<defs>
<linearGradient id="paint0_linear_10846_32052" x1="3.82539" y1="18.1082" x2="25.0664" y2="19.627" gradientUnits="userSpaceOnUse">
<stop stop-color="#F5D7B8"/>
<stop offset="1" stop-color="#D2966D"/>
</linearGradient>
<clipPath id="clip0_10846_32052">
<rect width="36" height="36" fill="white"/>
</clipPath>
</defs>
</svg>
