<svg width="16" height="16" viewBox="0 0 16 16" fill="none" xmlns="http://www.w3.org/2000/svg">
<path d="M7.99992 1.33301C4.302 1.33301 1.33325 4.3278 1.33325 7.99967C1.33325 11.6976 4.302 14.6663 7.99992 14.6663C11.6718 14.6663 14.6666 11.6976 14.6666 7.99967C14.6666 4.3278 11.6718 1.33301 7.99992 1.33301ZM10.8645 9.66634C10.7603 9.87467 10.552 9.97884 10.3437 9.97884C10.2135 9.97884 10.1093 9.9528 10.0312 9.90072L7.68742 8.54655C7.47909 8.44238 7.37492 8.23405 7.37492 7.99967V4.45801C7.37492 4.11947 7.63534 3.83301 7.99992 3.83301C8.33846 3.83301 8.62492 4.11947 8.62492 4.45801V7.66113L10.6562 8.83301C10.9426 8.98926 11.0468 9.37988 10.8645 9.66634Z" fill="#7629A2"/>
</svg>
