<svg width="16" height="14" viewBox="0 0 16 14" fill="none" xmlns="http://www.w3.org/2000/svg">
<path d="M3.6 0C4.3 0 4.95 0.4375 5.325 1.09375C5.675 1.77734 5.675 2.625 5.325 3.28125C4.95 3.96484 4.3 4.375 3.6 4.375C2.875 4.375 2.225 3.96484 1.85 3.28125C1.5 2.625 1.5 1.77734 1.85 1.09375C2.225 0.4375 2.875 0 3.6 0ZM12.8 0C13.5 0 14.15 0.4375 14.525 1.09375C14.875 1.77734 14.875 2.625 14.525 3.28125C14.15 3.96484 13.5 4.375 12.8 4.375C12.075 4.375 11.425 3.96484 11.05 3.28125C10.7 2.625 10.7 1.77734 11.05 1.09375C11.425 0.4375 12.075 0 12.8 0ZM0 8.17578C0 6.5625 1.175 5.25 2.65 5.25H3.725C4.125 5.25 4.5 5.35938 4.85 5.52344C4.8 5.71484 4.8 5.93359 4.8 6.125C4.8 7.19141 5.2 8.12109 5.875 8.75C5.875 8.75 5.875 8.75 5.85 8.75H0.525C0.225 8.75 0 8.50391 0 8.17578ZM10.125 8.75H10.1C10.775 8.12109 11.175 7.19141 11.175 6.125C11.175 5.93359 11.175 5.71484 11.15 5.52344C11.475 5.35938 11.85 5.25 12.25 5.25H13.325C14.8 5.25 16 6.5625 16 8.17578C16 8.50391 15.75 8.75 15.45 8.75H10.125ZM5.6 6.125C5.6 5.19531 6.05 4.34766 6.8 3.85547C7.525 3.39062 8.45 3.39062 9.2 3.85547C9.925 4.34766 10.4 5.19531 10.4 6.125C10.4 7.08203 9.925 7.92969 9.2 8.42188C8.45 8.88672 7.525 8.88672 6.8 8.42188C6.05 7.92969 5.6 7.08203 5.6 6.125ZM3.2 13.2891C3.2 11.2656 4.675 9.625 6.525 9.625H9.45C11.3 9.625 12.8 11.2656 12.8 13.2891C12.8 13.6719 12.5 14 12.125 14H3.85C3.475 14 3.175 13.6992 3.175 13.2891H3.2Z" fill="white"/>
</svg>
