<svg width="24" height="24" viewBox="0 0 24 24" fill="none" xmlns="http://www.w3.org/2000/svg">
<path d="M16.375 2.25C17.0391 2.25 17.625 2.6404 17.9766 3.18697C18.3281 3.77258 18.3281 4.51434 17.9766 5.06091C17.625 5.64652 17.0391 5.99788 16.375 5.99788C15.6719 5.99788 15.0859 5.64652 14.7344 5.06091C14.3828 4.51434 14.3828 3.77258 14.7344 3.18697C15.0859 2.6404 15.6719 2.25 16.375 2.25ZM12.1172 8.49646C11.5703 8.49646 11.0234 8.73071 10.6328 9.12111L9.73438 10.019C9.26563 10.5266 8.44531 10.5266 7.97656 10.019C7.46875 9.55056 7.46875 8.73071 7.97656 8.26222L8.875 7.36429C9.73438 6.5054 10.9063 5.99788 12.1172 5.99788C12.5469 5.99788 13.0156 6.07596 13.4453 6.23212L15.3594 6.81773C16.7656 7.24717 17.9375 8.30126 18.4844 9.66768L18.7578 10.2533C18.9531 10.7218 19.3828 10.9951 19.8906 10.9951H20.75C21.4141 10.9951 22 11.5807 22 12.2443C22 12.9471 21.4141 13.4936 20.75 13.4936H19.8906C18.3672 13.4936 17.0391 12.5957 16.4531 11.1903L16.2578 10.7218L15.0469 13.9231L17.2344 15.3285C17.9375 15.758 18.2891 16.6169 18.0547 17.4367L16.9219 21.3408C16.7266 22.0044 16.0625 22.3948 15.3984 22.1996C14.7344 22.0044 14.3438 21.3408 14.5391 20.6771L15.5156 17.2025L12.1563 15.0943C11.1797 14.4696 10.75 13.2594 11.1016 12.1663L12.3125 8.5355C12.2344 8.5355 12.1953 8.49646 12.1172 8.49646ZM10.0078 14.3916C10.2813 15.0943 10.7891 15.7189 11.4922 16.1484L11.8438 16.3826L11.4141 17.3977C11.1016 18.0614 10.4375 18.4908 9.69531 18.4908H7C6.29688 18.4908 5.75 17.9442 5.75 17.2415C5.75 16.5778 6.29688 15.9922 7 15.9922H9.30469L10.0078 14.3916ZM2.625 5.99788H7.625C7.9375 5.99788 8.25 6.27116 8.25 6.62253C8.25 6.97389 7.9375 7.24717 7.625 7.24717H2.625C2.27344 7.24717 2 6.97389 2 6.62253C2 6.27116 2.27344 5.99788 2.625 5.99788ZM2 9.12111C2 8.76975 2.27344 8.49646 2.625 8.49646H5.125C5.4375 8.49646 5.75 8.76975 5.75 9.12111C5.75 9.47247 5.4375 9.74576 5.125 9.74576H2.625C2.27344 9.74576 2 9.47247 2 9.12111ZM2.625 10.9951H7.625C7.9375 10.9951 8.25 11.2683 8.25 11.6197C8.25 11.9711 7.9375 12.2443 7.625 12.2443H2.625C2.27344 12.2443 2 11.9711 2 11.6197C2 11.2683 2.27344 10.9951 2.625 10.9951Z" fill="#320B4D"/>
</svg>
