<svg width="20" height="20" viewBox="0 0 20 20" fill="none" xmlns="http://www.w3.org/2000/svg">
<path d="M0.46875 2.58567C-0.09375 1.96262 -0.09375 1.02804 0.46875 0.467289C1.09375 -0.155764 2.03125 -0.155764 2.59375 0.467289L9.96875 7.88162L17.4063 0.467289C18.0313 -0.155764 18.9688 -0.155764 19.5313 0.467289C20.1563 1.02804 20.1563 1.96262 19.5313 2.58567L12.0938 10L19.5312 17.4143C20.1562 18.0374 20.1562 18.972 19.5312 19.5327C18.9688 20.1558 18.0312 20.1558 17.4688 19.5327L9.96875 12.0561L2.53125 19.4704C1.96875 20.0935 1.03125 20.0935 0.46875 19.4704C-0.15625 18.9097 -0.15625 17.9751 0.46875 17.352L7.90625 10L0.46875 2.58567Z" fill="#484649"/>
</svg>
