<svg width="20" height="12" viewBox="0 0 20 12" fill="none" xmlns="http://www.w3.org/2000/svg">
<path d="M14 0C17.3125 0 20 2.6875 20 6C20 9.3125 17.3125 12 14 12H6C2.6875 12 0 9.3125 0 6C0 2.6875 2.6875 0 6 0H14ZM6 3.5C5.58437 3.5 5.25 3.83437 5.25 4.25V5.25H4.25C3.83437 5.25 3.5 5.58437 3.5 6C3.5 6.41563 3.83437 6.75 4.25 6.75H5.25V7.75C5.25 8.16562 5.58437 8.5 6 8.5C6.41563 8.5 6.75 8.16562 6.75 7.75V6.75H7.75C8.16562 6.75 8.5 6.41563 8.5 6C8.5 5.58437 8.16562 5.25 7.75 5.25H6.75V4.25C6.75 3.83437 6.41563 3.5 6 3.5ZM13.5 6.5C12.9469 6.5 12.5 6.94688 12.5 7.5C12.5 8.05313 12.9469 8.5 13.5 8.5C14.0531 8.5 14.5 8.05313 14.5 7.5C14.5 6.94688 14.0531 6.5 13.5 6.5ZM15.5 3.5C14.9469 3.5 14.5 3.94688 14.5 4.5C14.5 5.05312 14.9469 5.5 15.5 5.5C16.0531 5.5 16.5 5.05312 16.5 4.5C16.5 3.94688 16.0531 3.5 15.5 3.5Z" fill="#F0DFF7"/>
</svg>
