<svg width="24" height="24" viewBox="0 0 24 24" fill="none" xmlns="http://www.w3.org/2000/svg">
<path d="M11.2677 2.2053C11.6978 1.93157 12.2844 1.93157 12.7146 2.2053L13.4185 2.67456C13.6531 2.83098 13.9268 2.87009 14.2006 2.87009L15.0218 2.83098C15.5302 2.79188 16.0385 3.06562 16.234 3.53488L16.6251 4.27787C16.7424 4.51251 16.9379 4.74714 17.2117 4.86445L17.9547 5.2164C18.4239 5.45103 18.6977 5.9594 18.6586 6.46776L18.6195 7.28897C18.6195 7.56271 18.6586 7.83644 18.815 8.07107L19.2842 8.77497C19.558 9.20512 19.558 9.7917 19.2842 10.2219L18.815 10.8866C18.6586 11.1213 18.6195 11.395 18.6195 11.7079L18.6586 12.5291C18.6977 13.0374 18.4239 13.5067 17.9547 13.7413L17.2117 14.1324C16.977 14.2497 16.7424 14.4452 16.6251 14.7189L16.2732 15.4619C16.0385 15.9312 15.5302 16.2049 15.0218 16.1658L14.2006 16.1267C13.9268 16.0876 13.6531 16.1658 13.4185 16.3223L12.7146 16.7915C12.2844 17.0653 11.6978 17.0653 11.2677 16.7915L10.6029 16.3223C10.3683 16.1658 10.0945 16.0876 9.7817 16.1267L8.96049 16.1658C8.45212 16.2049 7.98286 15.9312 7.74823 15.4619L7.35718 14.7189C7.23986 14.4452 7.04434 14.2497 6.7706 14.1324L6.0276 13.7413C5.55834 13.5458 5.2846 13.0374 5.32371 12.5291L5.36282 11.7079C5.40192 11.4341 5.32371 11.1213 5.16729 10.9258L4.69803 10.2219C4.42429 9.7917 4.42429 9.20512 4.69803 8.77497L5.16729 8.07107C5.32371 7.83644 5.40192 7.56271 5.36282 7.28897L5.32371 6.46776C5.2846 5.9594 5.55834 5.45103 6.0276 5.2555L6.7706 4.86445C7.04434 4.74714 7.23986 4.51251 7.35718 4.27787L7.74823 3.53488C7.94375 3.06562 8.45212 2.79188 8.96049 2.83098L9.7817 2.87009C10.0554 2.87009 10.3683 2.83098 10.5638 2.67456L11.2677 2.2053ZM15.1391 9.47886C15.1391 8.38392 14.5134 7.36718 13.5749 6.7806C12.5973 6.23313 11.385 6.23313 10.4465 6.7806C9.46886 7.36718 8.88228 8.38392 8.88228 9.47886C8.88228 10.6129 9.46886 11.6296 10.4465 12.2162C11.385 12.7637 12.5973 12.7637 13.5749 12.2162C14.5134 11.6296 15.1391 10.6129 15.1391 9.47886ZM4.54161 19.2551L6.22313 15.2664L6.61418 16.0094C7.08344 16.9088 8.02196 17.4954 9.0387 17.4172L9.85991 17.3781H9.89901L10.6029 17.8474C10.7984 17.9647 10.994 18.082 11.2286 18.1211L9.74259 21.6406C9.66438 21.8361 9.46886 21.9925 9.23422 21.9925C8.99959 22.0316 8.76496 21.9143 8.64765 21.7188L7.39628 19.8026L5.20639 20.1155C4.97176 20.1546 4.73713 20.0764 4.61982 19.8808C4.4634 19.7244 4.4634 19.4898 4.54161 19.2551ZM14.2397 21.6406L12.7537 18.1211C12.9883 18.082 13.1838 17.9647 13.3794 17.8474L14.0833 17.3781H14.1224L14.9436 17.4172C15.9603 17.4954 16.8988 16.9088 17.3681 16.0094L17.7591 15.2664L19.4407 19.2551C19.558 19.4898 19.5189 19.7244 19.3625 19.8808C19.2451 20.0764 19.0105 20.1546 18.7759 20.1155L16.586 19.8026L15.3346 21.7188C15.2173 21.9143 14.9827 22.0316 14.7481 21.9925C14.5134 21.9925 14.3179 21.8361 14.2397 21.6406Z" fill="#320B4D"/>
</svg>
