<svg width="16" height="16" viewBox="0 0 16 16" fill="none" xmlns="http://www.w3.org/2000/svg">
<path d="M3.75 0C4.15625 0 4.5 0.34375 4.5 0.75V1H5.75V0.75C5.75 0.34375 6.0625 0 6.5 0C6.90625 0 7.25 0.34375 7.25 0.75V1H8.75V0.75C8.75 0.34375 9.0625 0 9.5 0C9.90625 0 10.25 0.34375 10.25 0.75V1H11.5V0.75C11.5 0.34375 11.8125 0 12.25 0C12.6562 0 13 0.34375 13 0.75V1V2V4C13.5312 4 14 4.46875 14 5V7C14.5312 7 15 7.46875 15 8V11C15.5312 11 16 11.4688 16 12V15C16 15.5625 15.5312 16 15 16H13V11H12V7H11V4H10V7H11V11H12V16H9.5V14.5C9.5 13.6875 8.8125 13 8 13C7.15625 13 6.5 13.6875 6.5 14.5V16H4V11H5V7H6V4H5V7H4V11H3V16H1C0.4375 16 0 15.5625 0 15V12C0 11.4688 0.4375 11 1 11V8C1 7.46875 1.4375 7 2 7V5C2 4.46875 2.4375 4 3 4V2V1V0.75C3 0.34375 3.3125 0 3.75 0ZM8 8.5C7.4375 8.5 7 8.96875 7 9.5V11H9V9.5C9 8.96875 8.53125 8.5 8 8.5ZM7 6V7H9V6C9 5.46875 8.53125 5 8 5C7.4375 5 7 5.46875 7 6Z" fill="#FAF2FC"/>
</svg>
