<svg width="20" height="18" viewBox="0 0 20 18" fill="none" xmlns="http://www.w3.org/2000/svg">
<g clip-path="url(#clip0_35_986)">
<path d="M4.39139 3.02428L3.89425 3.44143C3.90282 3.45 3.91425 3.45428 3.92282 3.46428C4.09996 3.67571 4.07282 3.99 3.86139 4.16714C3.64996 4.34428 3.33568 4.31714 3.15854 4.10571C3.14996 4.09571 3.14854 4.08428 3.14139 4.07428L2.59854 4.53C2.60711 4.53857 2.61854 4.54286 2.62711 4.55286C2.80425 4.76428 2.77711 5.07857 2.56568 5.25571C2.35425 5.43286 2.03996 5.40571 1.86282 5.19428C1.85425 5.18428 1.85282 5.17286 1.84568 5.16286L1.30282 5.61857C1.31139 5.62714 1.32282 5.63143 1.33139 5.64143C1.50854 5.85286 1.48139 6.16714 1.26996 6.34428C1.05854 6.52143 0.744249 6.49428 0.567107 6.28286C0.558535 6.27286 0.557107 6.26143 0.549964 6.25143L-0.00146484 6.71428C0.0385352 6.76 0.075678 6.80571 0.111392 6.85C0.141392 6.88857 0.169964 6.92571 0.198535 6.96428C1.21139 8.35571 0.231392 9.26143 0.231392 9.26143L6.95996 17.28C6.95996 17.28 8.02282 16.4714 9.21568 17.7114C9.24854 17.7443 9.27996 17.78 9.31282 17.8171C9.35139 17.86 9.38853 17.9057 9.42711 17.9529L9.97853 17.49C9.96996 17.4814 9.95854 17.4771 9.94996 17.4671C9.77282 17.2557 9.79996 16.9414 10.0114 16.7643C10.2228 16.5871 10.5371 16.6143 10.7142 16.8257C10.7228 16.8357 10.7242 16.8471 10.7314 16.8571L11.2742 16.4014C11.2657 16.3929 11.2542 16.3886 11.2457 16.3786C11.0685 16.1671 11.0957 15.8529 11.3071 15.6757C11.5185 15.4986 11.8328 15.5257 12.01 15.7371C12.0185 15.7471 12.02 15.7586 12.0271 15.7686L12.57 15.3129C12.5614 15.3043 12.55 15.3 12.5414 15.29C12.3642 15.0786 12.3914 14.7643 12.6028 14.5871C12.8142 14.41 13.1285 14.4371 13.3057 14.6486C13.3142 14.6586 13.3157 14.67 13.3228 14.68L13.82 14.2629C12.4885 12.7314 13.5871 11.7157 13.5871 11.7157L6.85996 3.69571C6.85996 3.69571 5.66853 4.60143 4.39139 3.02428Z" fill="#0069FF"/>
<path d="M5.9371 4.97849L1.59473 8.62217L7.82242 16.044L12.1648 12.4004L5.9371 4.97849Z" fill="#0069FF"/>
<path d="M4.44706 2.82L3.94991 3.23714C3.95848 3.24571 3.96991 3.25 3.97848 3.26C4.15563 3.47143 4.12848 3.78571 3.91706 3.96286C3.70563 4.14 3.39134 4.11286 3.2142 3.90143C3.20563 3.89143 3.2042 3.88 3.19706 3.87L2.6542 4.32571C2.66277 4.33429 2.6742 4.33857 2.68277 4.34857C2.85991 4.56 2.83277 4.87429 2.62134 5.05143C2.40991 5.22857 2.09563 5.20143 1.91848 4.99C1.90991 4.98 1.90848 4.96857 1.90134 4.95857L1.35848 5.41429C1.36706 5.42286 1.37848 5.42714 1.38706 5.43714C1.5642 5.64857 1.53706 5.96286 1.32563 6.14C1.1142 6.31714 0.799913 6.29 0.622771 6.07857C0.614199 6.06857 0.612771 6.05714 0.605628 6.04714L0.0541992 6.51C0.0941992 6.55571 0.131342 6.60143 0.167056 6.64571C0.197056 6.68429 0.225628 6.72143 0.254199 6.76C1.26706 8.15143 0.287056 9.05714 0.287056 9.05714L7.01563 17.0757C7.01563 17.0757 8.07848 16.2671 9.27134 17.5071C9.3042 17.54 9.33563 17.5757 9.36849 17.6129C9.40706 17.6557 9.4442 17.7014 9.48277 17.7486L10.0342 17.2857C10.0256 17.2771 10.0142 17.2729 10.0056 17.2629C9.82848 17.0514 9.85563 16.7371 10.0671 16.56C10.2785 16.3829 10.5928 16.41 10.7699 16.6214C10.7785 16.6314 10.7799 16.6429 10.7871 16.6529L11.3299 16.1971C11.3213 16.1886 11.3099 16.1843 11.3013 16.1743C11.1242 15.9629 11.1513 15.6486 11.3628 15.4714C11.5742 15.2943 11.8885 15.3214 12.0656 15.5329C12.0742 15.5429 12.0756 15.5543 12.0828 15.5643L12.6256 15.1086C12.6171 15.1 12.6056 15.0957 12.5971 15.0857C12.4199 14.8743 12.4471 14.56 12.6585 14.3829C12.8699 14.2057 13.1842 14.2329 13.3613 14.4443C13.3699 14.4543 13.3713 14.4657 13.3785 14.4757L13.8756 14.0586C12.5442 12.5271 13.6428 11.5114 13.6428 11.5114L6.91563 3.49143C6.91563 3.49143 5.7242 4.39714 4.44706 2.82Z" fill="url(#paint0_linear_35_986)"/>
<path d="M5.99179 4.77425L1.64941 8.41793L7.87711 15.8398L12.2195 12.1961L5.99179 4.77425Z" fill="url(#paint1_linear_35_986)"/>
<path d="M7.44991 0.935715L6.89849 1.27857C6.90563 1.28857 6.91706 1.29429 6.92277 1.30571C7.06849 1.54 6.99706 1.84714 6.76277 1.99286C6.52849 2.13857 6.22134 2.06714 6.07563 1.83286C6.06849 1.82143 6.06849 1.81 6.06277 1.79857L5.46134 2.17286C5.46849 2.18286 5.47992 2.18857 5.48563 2.2C5.63134 2.43429 5.55991 2.74143 5.32563 2.88714C5.09134 3.03286 4.7842 2.96143 4.63849 2.72714C4.63134 2.71571 4.63134 2.70429 4.62563 2.69286L4.0242 3.06714C4.03134 3.07714 4.04277 3.08286 4.04849 3.09429C4.1942 3.32857 4.12277 3.63571 3.88849 3.78143C3.6542 3.92714 3.34706 3.85571 3.20134 3.62143C3.1942 3.61 3.1942 3.59857 3.18849 3.58714L2.57706 3.96714C2.60992 4.01857 2.64134 4.06857 2.66992 4.11857C2.6942 4.16143 2.71706 4.20286 2.73992 4.24286C3.54706 5.76286 2.44849 6.52143 2.44849 6.52143L7.97706 15.41C7.97706 15.41 9.14277 14.76 10.1499 16.1557C10.1771 16.1929 10.2042 16.2329 10.2313 16.2729C10.2628 16.32 10.2942 16.37 10.3256 16.4229L10.9371 16.0429C10.9299 16.0329 10.9185 16.0271 10.9128 16.0157C10.7671 15.7814 10.8385 15.4743 11.0728 15.3286C11.3071 15.1829 11.6142 15.2543 11.7599 15.4886C11.7671 15.5 11.7671 15.5114 11.7728 15.5229L12.3742 15.1486C12.3671 15.1386 12.3556 15.1329 12.3499 15.1214C12.2042 14.8871 12.2756 14.58 12.5099 14.4343C12.7442 14.2886 13.0513 14.36 13.1971 14.5943C13.2042 14.6057 13.2042 14.6171 13.2099 14.6286L13.8113 14.2543C13.8042 14.2443 13.7928 14.2386 13.7871 14.2271C13.6413 13.9929 13.7128 13.6857 13.9471 13.54C14.1813 13.3943 14.4885 13.4657 14.6342 13.7C14.6413 13.7114 14.6413 13.7229 14.6471 13.7343L15.1985 13.3914C14.0956 11.6871 15.3271 10.8371 15.3271 10.8371L9.79849 1.94857C9.79849 1.94857 8.49134 2.67714 7.44991 0.935715Z" fill="#0069FF"/>
<path d="M8.70364 3.08891L3.89014 6.08272L9.00708 14.3098L13.8206 11.316L8.70364 3.08891Z" fill="#0069FF"/>
<path d="M7.5942 0.73143L7.04277 1.07429C7.04992 1.08429 7.06134 1.09 7.06706 1.10143C7.21277 1.33572 7.14134 1.64286 6.90706 1.78857C6.67277 1.93429 6.36563 1.86286 6.21992 1.62857C6.21277 1.61714 6.21277 1.60572 6.20706 1.59429L5.60563 1.96857C5.61277 1.97857 5.6242 1.98429 5.62992 1.99572C5.77563 2.23 5.7042 2.53714 5.46992 2.68286C5.23563 2.82857 4.92849 2.75714 4.78277 2.52286C4.77563 2.51143 4.77563 2.5 4.76992 2.48857L4.16849 2.86286C4.17563 2.87286 4.18706 2.87857 4.19277 2.89C4.33849 3.12429 4.26706 3.43143 4.03277 3.57714C3.79849 3.72286 3.49134 3.65143 3.34563 3.41714C3.33849 3.40572 3.33849 3.39429 3.33277 3.38286L2.72134 3.76286C2.7542 3.81429 2.78563 3.86429 2.8142 3.91429C2.83849 3.95714 2.86134 3.99857 2.8842 4.03857C3.69134 5.55857 2.59277 6.31714 2.59277 6.31714L8.12134 15.2057C8.12134 15.2057 9.28706 14.5557 10.2942 15.9514C10.3213 15.9886 10.3485 16.0286 10.3756 16.0686C10.4071 16.1157 10.4385 16.1657 10.4699 16.2186L11.0813 15.8386C11.0742 15.8286 11.0628 15.8229 11.0571 15.8114C10.9113 15.5771 10.9828 15.27 11.2171 15.1243C11.4513 14.9786 11.7585 15.05 11.9042 15.2843C11.9113 15.2957 11.9113 15.3071 11.9171 15.3186L12.5185 14.9443C12.5113 14.9343 12.4999 14.9286 12.4942 14.9171C12.3485 14.6829 12.4199 14.3757 12.6542 14.23C12.8885 14.0843 13.1956 14.1557 13.3413 14.39C13.3485 14.4014 13.3485 14.4129 13.3542 14.4243L13.9556 14.05C13.9485 14.04 13.9371 14.0343 13.9313 14.0229C13.7856 13.7886 13.8571 13.4814 14.0913 13.3357C14.3256 13.19 14.6328 13.2614 14.7785 13.4957C14.7856 13.5071 14.7856 13.5186 14.7913 13.53L15.3428 13.1871C14.2399 11.4829 15.4713 10.6329 15.4713 10.6329L9.94277 1.74429C9.94277 1.74429 8.63563 2.47286 7.5942 0.73143Z" fill="url(#paint2_linear_35_986)"/>
<path d="M8.84817 2.88495L4.03467 5.87876L9.15161 14.1059L13.9651 11.1121L8.84817 2.88495Z" fill="url(#paint3_linear_35_986)"/>
<path d="M12.3256 0.162857L11.6942 0.312857C11.6985 0.324286 11.7071 0.334286 11.7099 0.345714C11.7728 0.614286 11.6071 0.882857 11.3399 0.945714C11.0714 1.00857 10.8028 0.842857 10.7399 0.575714C10.7371 0.562857 10.7399 0.551428 10.7399 0.54L10.0499 0.702857C10.0542 0.714286 10.0628 0.724286 10.0656 0.735714C10.1285 1.00429 9.96278 1.27286 9.69564 1.33571C9.42707 1.39857 9.15849 1.23286 9.09564 0.965714C9.09278 0.952857 9.09564 0.941428 9.09564 0.93L8.40564 1.09286C8.40992 1.10429 8.41849 1.11429 8.42135 1.12571C8.48421 1.39429 8.31849 1.66286 8.05135 1.72571C7.78278 1.78857 7.51421 1.62286 7.45135 1.35571C7.44849 1.34286 7.45135 1.33143 7.45135 1.32L6.75135 1.48571C6.76707 1.54429 6.77992 1.60143 6.79135 1.65857C6.80135 1.70571 6.80992 1.75286 6.81707 1.79857C7.09707 3.49714 5.81421 3.86571 5.81421 3.86571L8.22421 14.0514C8.22421 14.0514 9.53707 13.8057 10.0471 15.45C10.0614 15.4943 10.0742 15.54 10.0871 15.5871C10.1014 15.6429 10.1156 15.7 10.1285 15.7586L10.8285 15.5929C10.8242 15.5814 10.8156 15.5714 10.8128 15.56C10.7499 15.2914 10.9156 15.0229 11.1828 14.96C11.4514 14.8971 11.7199 15.0629 11.7828 15.33C11.7856 15.3429 11.7828 15.3543 11.7828 15.3657L12.4728 15.2029C12.4685 15.1914 12.4599 15.1814 12.4571 15.17C12.3942 14.9014 12.5599 14.6329 12.8271 14.57C13.0956 14.5071 13.3642 14.6729 13.4271 14.94C13.4299 14.9529 13.4271 14.9643 13.4271 14.9757L14.1171 14.8129C14.1128 14.8014 14.1042 14.7914 14.1014 14.78C14.0385 14.5114 14.2042 14.2429 14.4714 14.18C14.7399 14.1171 15.0085 14.2829 15.0714 14.55C15.0742 14.5629 15.0714 14.5743 15.0714 14.5857L15.7028 14.4357C15.2014 12.4686 16.6385 12.0557 16.6385 12.0557L14.2299 1.87143C14.2299 1.87143 12.7585 2.14571 12.3271 0.162857H12.3256Z" fill="#0069FF"/>
<path d="M12.83 2.60374L7.31372 3.90876L9.54422 13.3371L15.0605 12.0321L12.83 2.60374Z" fill="#0069FF"/>
<path d="M12.4929 0L11.8614 0.15C11.8657 0.161429 11.8743 0.171429 11.8772 0.182857C11.94 0.451429 11.7743 0.72 11.5072 0.782857C11.2386 0.845714 10.97 0.68 10.9072 0.412857C10.9043 0.4 10.9072 0.388571 10.9072 0.377143L10.2172 0.54C10.2214 0.551429 10.23 0.561429 10.2329 0.572857C10.2957 0.841429 10.13 1.11 9.86287 1.17286C9.5943 1.23571 9.32573 1.07 9.26287 0.802857C9.26002 0.79 9.26287 0.778571 9.26287 0.767143L8.57287 0.93C8.57716 0.941429 8.58573 0.951428 8.58859 0.962857C8.65145 1.23143 8.48573 1.5 8.21859 1.56286C7.95002 1.62571 7.68145 1.46 7.61859 1.19286C7.61573 1.18 7.61859 1.16857 7.61859 1.15714L6.91859 1.32286C6.9343 1.38143 6.94716 1.43857 6.95859 1.49571C6.96859 1.54286 6.97716 1.59 6.9843 1.63571C7.2643 3.33429 5.98145 3.70286 5.98145 3.70286L8.39145 13.8886C8.39145 13.8886 9.7043 13.6429 10.2143 15.2871C10.2286 15.3314 10.2414 15.3771 10.2543 15.4243C10.2686 15.48 10.2829 15.5371 10.2957 15.5957L10.9957 15.43C10.9914 15.4186 10.9829 15.4086 10.98 15.3971C10.9172 15.1286 11.0829 14.86 11.35 14.7971C11.6172 14.7343 11.8872 14.9 11.95 15.1671C11.9529 15.18 11.95 15.1914 11.95 15.2029L12.64 15.04C12.6357 15.0286 12.6272 15.0186 12.6243 15.0071C12.5614 14.7386 12.7272 14.47 12.9943 14.4071C13.2629 14.3443 13.5314 14.51 13.5943 14.7771C13.5972 14.79 13.5943 14.8014 13.5943 14.8129L14.2843 14.65C14.28 14.6386 14.2714 14.6286 14.2686 14.6171C14.2057 14.3486 14.3714 14.08 14.6386 14.0171C14.9072 13.9543 15.1757 14.12 15.2386 14.3871C15.2414 14.4 15.2386 14.4114 15.2386 14.4229L15.87 14.2729C15.3686 12.3057 16.8057 11.8929 16.8057 11.8929L14.3957 1.70857C14.3957 1.70857 12.9243 1.98286 12.4929 0Z" fill="url(#paint4_linear_35_986)"/>
<path d="M12.9953 2.4414L7.479 3.74641L9.7095 13.1747L15.2258 11.8697L12.9953 2.4414Z" fill="url(#paint5_linear_35_986)"/>
<path d="M17.3799 0.332855H16.7313C16.7313 0.345712 16.7385 0.355712 16.7385 0.36857C16.7385 0.644284 16.5156 0.867141 16.2399 0.867141C15.9642 0.867141 15.7413 0.644284 15.7413 0.36857C15.7413 0.355712 15.747 0.345712 15.7485 0.332855H15.0399C15.0399 0.345712 15.047 0.355712 15.047 0.36857C15.047 0.644284 14.8242 0.867141 14.5485 0.867141C14.2728 0.867141 14.0499 0.644284 14.0499 0.36857C14.0499 0.355712 14.0556 0.345712 14.057 0.332855H13.3485C13.3485 0.345712 13.3556 0.355712 13.3556 0.36857C13.3556 0.644284 13.1328 0.867141 12.857 0.867141C12.5813 0.867141 12.3585 0.644284 12.3585 0.36857C12.3585 0.355712 12.3642 0.345712 12.3656 0.332855H11.647C11.647 0.394284 11.647 0.452855 11.647 0.509998C11.647 0.55857 11.6428 0.607141 11.6399 0.652855C11.5213 2.37 10.1885 2.43428 10.1885 2.43428V12.9014C10.1885 12.9014 11.5213 12.9657 11.6399 14.6829C11.6428 14.7286 11.6456 14.7771 11.647 14.8257C11.6485 14.8829 11.6485 14.9414 11.647 15.0029H12.3656C12.3656 14.99 12.3585 14.98 12.3585 14.9671C12.3585 14.6914 12.5813 14.4686 12.857 14.4686C13.1328 14.4686 13.3556 14.6914 13.3556 14.9671C13.3556 14.98 13.3499 14.99 13.3485 15.0029H14.057C14.057 14.99 14.0499 14.98 14.0499 14.9671C14.0499 14.6914 14.2728 14.4686 14.5485 14.4686C14.8242 14.4686 15.047 14.6914 15.047 14.9671C15.047 14.98 15.0413 14.99 15.0399 15.0029H15.7485C15.7485 14.99 15.7413 14.98 15.7413 14.9671C15.7413 14.6914 15.9642 14.4686 16.2399 14.4686C16.5156 14.4686 16.7385 14.6914 16.7385 14.9671C16.7385 14.98 16.7328 14.99 16.7313 15.0029H17.3799C17.3442 12.9729 18.8385 12.9029 18.8385 12.9029V2.43286C18.8385 2.43286 17.3442 2.36143 17.3799 0.332855Z" fill="#0069FF"/>
<path d="M17.307 2.82286H11.6384V12.5114H17.307V2.82286Z" fill="#0069FF"/>
<path d="M17.6385 0.23H16.9899C16.9899 0.242857 16.997 0.252857 16.997 0.265714C16.997 0.541428 16.7742 0.764285 16.4984 0.764285C16.2227 0.764285 15.9999 0.541428 15.9999 0.265714C15.9999 0.252857 16.0056 0.242857 16.007 0.23H15.2984C15.2984 0.242857 15.3056 0.252857 15.3056 0.265714C15.3056 0.541428 15.0827 0.764285 14.807 0.764285C14.5313 0.764285 14.3085 0.541428 14.3085 0.265714C14.3085 0.252857 14.3142 0.242857 14.3156 0.23H13.607C13.607 0.242857 13.6142 0.252857 13.6142 0.265714C13.6142 0.541428 13.3913 0.764285 13.1156 0.764285C12.8399 0.764285 12.617 0.541428 12.617 0.265714C12.617 0.252857 12.6227 0.242857 12.6242 0.23H11.9056C11.9056 0.291428 11.9056 0.35 11.9056 0.407142C11.9056 0.455714 11.9013 0.504285 11.8985 0.55C11.7799 2.26714 10.447 2.33143 10.447 2.33143V12.7986C10.447 12.7986 11.7799 12.8629 11.8985 14.58C11.9013 14.6257 11.9042 14.6743 11.9056 14.7229C11.907 14.78 11.907 14.8386 11.9056 14.9H12.6242C12.6242 14.8871 12.617 14.8771 12.617 14.8643C12.617 14.5886 12.8399 14.3657 13.1156 14.3657C13.3913 14.3657 13.6142 14.5886 13.6142 14.8643C13.6142 14.8771 13.6085 14.8871 13.607 14.9H14.3156C14.3156 14.8871 14.3085 14.8771 14.3085 14.8643C14.3085 14.5886 14.5313 14.3657 14.807 14.3657C15.0827 14.3657 15.3056 14.5886 15.3056 14.8643C15.3056 14.8771 15.2999 14.8871 15.2984 14.9H16.007C16.007 14.8871 15.9999 14.8771 15.9999 14.8643C15.9999 14.5886 16.2227 14.3657 16.4984 14.3657C16.7742 14.3657 16.997 14.5886 16.997 14.8643C16.997 14.8771 16.9913 14.8871 16.9899 14.9H17.6385C17.6027 12.87 19.097 12.8 19.097 12.8V2.33143C19.097 2.33143 17.6027 2.26 17.6385 0.231428V0.23Z" fill="url(#paint6_linear_35_986)"/>
<path d="M17.5655 2.72H11.897V12.4086H17.5655V2.72Z" fill="url(#paint7_linear_35_986)"/>
</g>
<defs>
<linearGradient id="paint0_linear_35_986" x1="1.94701" y1="3.5835" x2="9.20968" y2="13.2736" gradientUnits="userSpaceOnUse">
<stop offset="0.05" stop-color="#65C1FF"/>
<stop offset="0.52" stop-color="#0069FF"/>
<stop offset="1" stop-color="#65C1FF"/>
</linearGradient>
<linearGradient id="paint1_linear_35_986" x1="3.50067" y1="6.09298" x2="8.15427" y2="11.8009" gradientUnits="userSpaceOnUse">
<stop offset="0.05" stop-color="#AFFFFF"/>
<stop offset="0.52" stop-color="#4AB3FF"/>
<stop offset="1" stop-color="#AFFFFF"/>
</linearGradient>
<linearGradient id="paint2_linear_35_986" x1="4.63134" y1="2.49714" x2="11.0171" y2="11.1657" gradientUnits="userSpaceOnUse">
<stop offset="0.05" stop-color="#65C1FF"/>
<stop offset="0.52" stop-color="#0069FF"/>
<stop offset="1" stop-color="#65C1FF"/>
</linearGradient>
<linearGradient id="paint3_linear_35_986" x1="6.05127" y1="4.48868" x2="10.417" y2="10.4201" gradientUnits="userSpaceOnUse">
<stop offset="0.05" stop-color="#AFFFFF"/>
<stop offset="0.52" stop-color="#4AB3FF"/>
<stop offset="1" stop-color="#AFFFFF"/>
</linearGradient>
<linearGradient id="paint4_linear_35_986" x1="8.79573" y1="0.122857" x2="11.7943" y2="8.98571" gradientUnits="userSpaceOnUse">
<stop offset="0.05" stop-color="#65C1FF"/>
<stop offset="0.52" stop-color="#0069FF"/>
<stop offset="1" stop-color="#65C1FF"/>
</linearGradient>
<linearGradient id="paint5_linear_35_986" x1="10.3914" y1="3.81475" x2="12.0857" y2="10.8533" gradientUnits="userSpaceOnUse">
<stop offset="0.05" stop-color="#AFFFFF"/>
<stop offset="0.52" stop-color="#4AB3FF"/>
<stop offset="1" stop-color="#AFFFFF"/>
</linearGradient>
<linearGradient id="paint6_linear_35_986" x1="11.867" y1="-0.722858" x2="15.4299" y2="9.44429" gradientUnits="userSpaceOnUse">
<stop offset="0.05" stop-color="#65C1FF"/>
<stop offset="0.52" stop-color="#0069FF"/>
<stop offset="1" stop-color="#65C1FF"/>
</linearGradient>
<linearGradient id="paint7_linear_35_986" x1="12.9884" y1="0.328573" x2="15.8555" y2="12.2343" gradientUnits="userSpaceOnUse">
<stop offset="0.05" stop-color="#AFFFFF"/>
<stop offset="0.52" stop-color="#4AB3FF"/>
<stop offset="1" stop-color="#AFFFFF"/>
</linearGradient>
<clipPath id="clip0_35_986">
<rect width="19.0971" height="17.9471" fill="white"/>
</clipPath>
</defs>
</svg>
