<svg width="20" height="20" viewBox="0 0 20 20" fill="none" xmlns="http://www.w3.org/2000/svg">
<path d="M19.4747 0.210343C19.8657 0.48391 20.0612 0.952882 19.983 1.42185L17.4808 17.6796C17.4417 18.0704 17.2071 18.383 16.8552 18.5784C16.5424 18.7738 16.1124 18.8129 15.7605 18.6566L11.1079 16.7025L8.41017 19.5945C8.05829 19.9853 7.51093 20.1026 7.04176 19.9072C6.57259 19.7508 6.25981 19.2819 6.25981 18.7347V15.491C6.25981 15.3347 6.29891 15.1784 6.4162 15.0611L12.9455 7.9093C13.1801 7.67482 13.1801 7.28401 12.9455 7.04952C12.7109 6.81503 12.3199 6.81503 12.0853 7.04952L4.14855 14.0841L0.668874 12.3645C0.2779 12.1691 0.00421795 11.7392 0.00421795 11.2703C-0.0348795 10.8404 0.199705 10.4105 0.629777 10.176L18.1454 0.171262C18.5364 -0.0632245 19.0838 -0.0632245 19.4747 0.210343Z" fill="#484649"/>
</svg>
