<svg width="32" height="32" viewBox="0 0 32 32" fill="none" xmlns="http://www.w3.org/2000/svg">
<path d="M26.8332 15.9743C26.8332 12.1201 24.7498 8.57845 21.4165 6.59928C18.0311 4.6722 13.9165 4.6722 10.5832 6.59928C7.19775 8.57845 5.1665 12.1201 5.1665 15.9743C5.1665 19.8805 7.19775 23.4222 10.5832 25.4014C13.9165 27.3284 18.0311 27.3284 21.4165 25.4014C24.7498 23.4222 26.8332 19.8805 26.8332 15.9743ZM2.6665 15.9743C2.6665 11.2347 5.1665 6.8597 9.33317 4.46387C13.4478 2.06803 18.4998 2.06803 22.6665 4.46387C26.7811 6.8597 29.3332 11.2347 29.3332 15.9743C29.3332 20.7659 26.7811 25.1409 22.6665 27.5368C18.4998 29.9326 13.4478 29.9326 9.33317 27.5368C5.1665 25.1409 2.6665 20.7659 2.6665 15.9743Z" fill="#67E58C"/>
</svg>
