<svg width="24" height="24" viewBox="0 0 24 24" fill="none" xmlns="http://www.w3.org/2000/svg">
<path d="M20.125 11.9805C20.125 9.08984 18.5625 6.43359 16.0625 4.94922C13.5234 3.50391 10.4375 3.50391 7.9375 4.94922C5.39844 6.43359 3.875 9.08984 3.875 11.9805C3.875 14.9102 5.39844 17.5664 7.9375 19.0508C10.4375 20.4961 13.5234 20.4961 16.0625 19.0508C18.5625 17.5664 20.125 14.9102 20.125 11.9805ZM2 11.9805C2 8.42578 3.875 5.14453 7 3.34766C10.0859 1.55078 13.875 1.55078 17 3.34766C20.0859 5.14453 22 8.42578 22 11.9805C22 15.5742 20.0859 18.8555 17 20.6523C13.875 22.4492 10.0859 22.4492 7 20.6523C3.875 18.8555 2 15.5742 2 11.9805Z" fill="white"/>
<path d="M13.2891 16.082C12.8984 16.4727 12.3125 16.4727 11.9609 16.082C11.5703 15.7305 11.5703 15.1445 11.9609 14.7539L13.7969 12.918H7.9375C7.39062 12.918 7 12.5273 7 11.9805C7 11.4727 7.39062 11.043 7.9375 11.043H13.7969L11.9609 9.20703C11.5703 8.85547 11.5703 8.26953 11.9609 7.91797C12.3125 7.52734 12.8984 7.52734 13.2891 7.91797L16.7266 11.3555C17.0781 11.707 17.0781 12.293 16.7266 12.6445L13.2891 16.082Z" fill="white"/>
</svg>
