<svg width="240" height="184" viewBox="0 0 240 184" fill="none" xmlns="http://www.w3.org/2000/svg">
<g clip-path="url(#clip0_10794_16926)">
<path d="M38.5244 0C96.5332 14.1571 161.098 30.6964 218.733 46.2232C160.746 32.0931 96.1756 15.5106 38.5244 0Z" fill="#7D5CA2"/>
<path d="M219.464 108.066C178.892 132.012 137.512 155.594 96.2188 178.278C136.786 154.328 178.171 130.756 219.464 108.066Z" fill="#7D5CA2"/>
<path d="M231.894 98.8828C168.624 126.347 97.3353 156.437 33.5127 182.597C96.7827 155.127 168.072 125.048 231.894 98.8828Z" fill="#7D5CA2"/>
<path d="M212.437 101.58C160.979 121.097 108.713 140.143 56.7568 158.29C108.209 138.768 160.48 119.733 212.437 101.58Z" fill="#7D5CA2"/>
<path d="M240.001 78.8965C175.376 91.8734 102.727 105.657 37.8369 117.243C102.461 104.26 175.111 90.4875 240.001 78.8965Z" fill="#7D5CA2"/>
<path d="M232.978 75.6582C162.767 85.1811 83.9028 95.083 13.5186 103.204C83.7294 93.6754 162.593 83.7843 232.978 75.6582Z" fill="#7D5CA2"/>
<path d="M223.789 72.957C163.992 78.1597 97.1789 83.2162 37.3008 87.0005C97.0651 81.7761 163.895 76.7684 223.789 72.957Z" fill="#7D5CA2"/>
<path d="M220.889 63.9418C161.363 58.4847 94.9941 51.6416 35.6416 44.7715C95.135 50.2015 161.515 57.0933 220.889 63.9418Z" fill="#7D5CA2"/>
<path d="M224.867 57.8352C156.872 46.5906 80.7226 33.2023 12.9717 20.5664C80.9664 31.8055 157.116 45.1993 224.867 57.8352Z" fill="#7D5CA2"/>
<path d="M224.867 52.9736C152.689 38.2643 71.8797 20.9942 0 4.9043C72.1777 19.6082 152.987 36.8837 224.867 52.9736Z" fill="#7D5CA2"/>
<path d="M183.688 69.8961L210.243 56.2154L181.087 62.2355L190.12 52.7992L178.486 56.4915L193.409 38.8478L172.873 51.4295L182.317 36.2492L168.083 45.1387L168.652 30.2886L153.378 37.5269L92.9742 68.6617V56.7513L75.137 54.0498L89.1922 61.0716H63.2437L80.1435 75.2774L60.903 77.8273L81.0809 85.3796L53.7725 93.1918L73.8583 97.6203L60.3178 104.631L74.6006 106.125L62.9728 113.153L76.1773 113.396L57.4244 127.039L80.6691 119.173L75.5054 127.775L89.4685 123.769L79.5096 134.9L93.2668 129.454L79.9051 150.134L102.841 130.45L101.779 143.01L115.363 131.132L115.78 140.444L123.16 130.39L123.458 145.663L127.429 134.862L133.043 143.205L135.779 132.399L141.528 137.596L151.519 112.839L175.338 123.368L168.083 110.927L189.713 115.166L172.873 106.001L184.235 100.392L177.256 94.7888L197.239 93.8306L182.458 86.4407L191.49 80.6967L182.046 79.197L201.482 70.9897L183.688 69.8961Z" fill="url(#paint0_linear_10794_16926)"/>
<path d="M67.4209 150.039L66.321 147.814C66.088 147.349 65.6383 146.975 65.0585 146.753C61.5854 145.438 57.1911 144.469 55.5494 144.133C55.1972 144.057 54.8179 144.241 54.7366 144.517L54.5361 145.183L58.2314 148.778C58.7299 149.26 59.4722 149.563 60.2958 149.612L67.4209 150.034V150.039Z" fill="#C8BAD8"/>
<path d="M31.8169 72.7989C32.4888 73.0208 33.5779 73.9845 34.3039 74.672C34.6832 75.0348 34.6182 75.6628 34.1631 75.9226C33.1769 76.4965 31.5894 77.4223 30.5274 78.0936C30.5274 78.0936 28.8423 74.8453 31.8223 72.7935L31.8169 72.7989Z" fill="#C8BAD8"/>
<path d="M46.3975 48.5513L48.7219 54.5011L41.3313 58.6751L39.0068 54.16C39.0068 54.16 41.2988 50.5111 42.4637 49.6828C43.1844 49.1684 44.8099 48.508 46.3975 48.5567V48.5513Z" fill="#C8BAD8"/>
<path d="M106.893 178.899C106.893 178.899 108.264 177.6 109.7 177.6C111.135 177.6 112.506 178.829 112.506 178.829C112.506 178.829 112.094 180.263 111.683 180.81C111.406 181.178 109.927 182.223 108.984 182.867C108.042 183.512 106.779 182.878 106.752 181.763C106.752 181.741 106.752 181.72 106.752 181.698C106.752 179.987 106.887 178.894 106.887 178.894L106.893 178.899Z" fill="#C8BAD8"/>
<path d="M141.241 165.81C140.601 165.761 140 166.14 139.783 166.741C139.631 167.169 139.528 167.732 139.61 168.436C139.816 170.212 141.528 169.529 142.346 168.642C143.164 167.754 144.329 167.272 143.717 166.519C143.327 166.043 142.097 165.87 141.241 165.805V165.81Z" fill="#C8BAD8"/>
<path d="M99.2803 114.904C99.2803 114.904 107.928 112.506 108.649 112.744C109.369 112.982 105.045 101.943 105.045 101.943L91.8301 108.906" fill="#7D5CA2"/>
<path d="M105.506 110.805C105.506 110.805 126.497 103.264 132.549 102.316C138.601 101.369 139.311 101.634 139.311 101.634L139.381 94.1901C139.381 94.1901 132.489 92.2249 131.508 92.6634C130.528 93.1019 110.539 99.723 110.539 99.723L109.618 104.493" fill="#6F4A98"/>
<path d="M128.848 141.112C128.848 141.112 128.81 145.481 127.011 148.61C126.757 149.054 126.524 149.433 126.296 149.774C124.801 151.658 121.956 151.848 121.956 151.848C123.137 152.584 124.232 153.169 125.25 153.651C125.808 153.959 126.486 154.289 127.293 154.636C130.875 156.168 132.841 155.989 133.941 152.925C135.041 149.861 134.814 148.464 135.605 145.952C136.374 143.5 135.556 142.98 130.073 139.461L128.854 141.107L128.848 141.112Z" fill="#272727"/>
<path d="M179.31 130.274C179.31 130.274 181.726 128.336 184.576 127.367C185.698 126.982 186.928 127.459 187.491 128.498C188.732 130.804 190.97 135.13 192.156 138.487C192.574 139.667 192.243 140.993 191.295 141.805C190 142.921 187.654 144.323 183.655 144.956C183.655 144.956 185.329 142.336 184.219 139.25C182.886 135.541 182.246 132.743 179.488 132.347L179.31 130.268V130.274Z" fill="#272727"/>
<path d="M180.722 125.71C180.359 122.467 174.237 123.187 169.192 123.187C168.114 123.187 167.301 122.905 166.689 122.467C166.689 122.467 166.689 122.467 166.689 122.461C167.561 119.294 168.146 106.247 164.565 104.645L137.587 115.055C137.587 115.055 125.125 121.471 118.644 132.58C117.626 134.323 117.171 135.72 117.214 136.965L117.176 136.987C117.176 136.987 117.539 141.307 117.176 142.39C116.813 143.472 121.5 146.71 125.103 145.27C128.706 143.83 135.192 140.23 135.555 136.987C135.826 134.54 131.378 132.916 131.659 129.786C133.122 124.594 141.727 119.652 148.673 119.078C154.666 118.58 153.945 118.515 157.115 125.888C157.982 127.908 158.22 130.192 160.154 131.676C165.269 140.728 169.777 139.704 174.952 138.67C180.359 137.588 181.08 128.947 180.717 125.71H180.722Z" fill="#694293"/>
<path d="M136.938 114.281C142.557 112.429 135.616 93.6922 135.258 87.4825C134.776 79.1452 144.6 79.1777 149.368 82.1391C157.062 86.9195 166.224 106.485 164.23 105.548C164.23 105.548 146.794 113.463 136.938 114.281Z" fill="#62398E"/>
<path d="M146.372 89.0645C152.251 104.608 145.337 115.219 145.337 115.219L137.74 117.276C137.74 117.276 146.35 107.704 142.698 91.5007" fill="#491A7D"/>
<path d="M175.928 12.2691C175.928 12.2691 166.934 27.2221 152.283 25.8524L149.937 30.0806C149.937 30.0806 156.162 31.3257 160.318 29.6366C164.474 27.9475 173.712 31.1579 181.173 15.0139C181.173 15.0139 178.616 12.4586 175.934 12.2637L175.928 12.2691Z" fill="#181C29"/>
<path d="M158.866 6.96875L169.199 8.17603C169.199 8.17603 168.077 18.3269 153.328 30.2374L144.946 28.1747C144.946 28.1747 144.805 24.4337 144.236 22.4523C144.236 22.4523 154.087 14.7484 158.866 6.96875Z" fill="#3C2F5D"/>
<path d="M132.246 19.7996C132.246 19.7996 157.674 28.0016 168.397 46.4952C178.15 63.3105 145.933 92.3286 131.293 96.075C116.305 99.908 99.476 97.4447 81.1566 75.1018C80.1 73.8134 79.0597 72.3245 79.2981 70.6733C80.3601 63.3051 85.1553 41.7689 99.6819 29.0248C116.262 14.9705 132.246 19.8051 132.246 19.8051V19.7996Z" fill="#6F4A98"/>
<path d="M82.5492 74.4461C95.5965 90.3573 110.703 94.6072 122.125 95.3218C122.125 95.3218 132.642 94.2174 146.984 78.7447C160.801 63.8404 152.234 51.7297 148.756 49.2339C143.327 45.3305 107.95 52.4118 93.18 61.4854C86.1741 65.7894 82.9935 69.4762 82.1753 71.8474C81.6552 73.3525 82.5492 74.4461 82.5492 74.4461Z" fill="black"/>
<path d="M91.5109 63.2291C92.3074 62.6282 92.2369 62.0652 93.1797 61.4859C107.956 52.4069 143.332 45.331 148.756 49.2344C152.234 51.7356 160.801 63.8463 146.984 78.7451C132.641 94.2178 121.718 95.4035 121.718 95.4035C115.774 95.0299 106.233 92.258 99.8605 88.5279C99.8605 88.5279 99.7522 87.3964 95.8672 85.6748C91.9931 83.9532 95.813 77.0993 94.0412 73.0498C92.5566 69.6445 90.438 67.3057 91.5109 63.2345V63.2291Z" fill="url(#paint1_linear_10794_16926)"/>
<path d="M151.779 64.4636C152.662 64.6043 149.882 54.6429 143.191 50.9561C143.191 50.9561 129.076 51.3892 114.295 55.3088C97.693 59.7102 91.2451 65.1132 91.2451 65.1132C91.2451 65.1132 90.5083 63.1913 90.9038 62.9694C91.6624 62.5362 109.413 48.8447 144.047 47.8594C144.047 47.8594 147.921 48.2221 149.395 49.3915C150.869 50.5609 153.8 55.482 154.851 59.0985C155.572 60.0351 153.827 62.9964 151.779 64.4582V64.4636Z" fill="#B4643F"/>
<path d="M113.943 38.0973C114.051 37.6155 114.171 37.1282 114.317 36.6356C114.761 35.1197 115.417 33.5389 116.305 32.2287C117.194 30.9186 118.256 29.9874 119.258 29.4406C120.266 28.8884 121.225 28.7097 122.119 28.6556C123.013 28.6123 123.864 28.6989 124.671 28.8667C125.051 28.9479 125.484 29.1049 125.907 29.2674C125.928 29.2728 125.945 29.2836 125.966 29.2944C126.384 29.511 126.795 29.7546 127.18 30.1227C127.305 30.231 127.418 30.3718 127.532 30.5017C127.028 31.774 126.503 33.03 125.966 34.2806C125.858 34.2156 125.755 34.1506 125.641 34.0965C125.089 33.8475 124.53 33.7987 123.788 33.7771C123.068 33.7338 122.358 33.7662 121.67 33.8962C120.288 34.1831 119.08 34.757 118.272 35.856C117.682 36.5977 117.21 37.7887 116.847 39.1909C116.56 40.3061 115.845 41.0966 115.14 41.0857C114.165 41.0641 113.612 39.6565 113.954 38.0919L113.943 38.0973Z" fill="black"/>
<path d="M84.1364 50.0913C83.665 50.4324 83.3345 50.8763 83.0202 51.3202C82.8523 51.5638 82.7114 51.8778 82.603 52.2676C81.9582 52.1269 81.3135 52.0024 80.6633 51.8887C80.5549 50.9196 80.5495 49.9018 80.7283 48.9652C81.0046 47.4439 81.6711 46.3991 82.3375 45.6736C82.9877 44.9319 83.7788 44.4122 84.5536 44.0819C86.1195 43.4485 87.6963 44.5908 89.2459 45.2134C90.0045 45.5383 90.7414 45.8956 91.4837 46.3124C92.7624 47.0379 93.7702 46.7672 93.5372 48.7866C93.3422 50.454 92.3235 51.4123 91.2724 50.8763C90.633 50.5515 89.9774 50.2591 89.3543 50.0209C88.0701 49.5553 86.7914 49.29 85.6698 49.4633C85.1117 49.5607 84.6241 49.7502 84.1364 50.0913Z" fill="black"/>
<path d="M143.007 25.9551C138.954 29.5661 136.19 34.4115 134.327 39.4571C133.882 40.5941 133.503 41.8717 133.107 43.0249C134.034 36.4254 137.263 29.6473 143.007 25.9551Z" fill="#0F131E"/>
<path d="M137.274 47.1662C140.877 32.9657 148.967 27.6602 148.967 27.6602C150.435 28.4018 151.785 29.3926 153.464 30.5295C155.545 31.9371 157.284 33.3826 158.698 34.709C157.387 35.4127 155.913 36.3277 154.467 37.5999C152.104 39.6843 149.146 43.3115 147.19 48.4059L145.911 47.9403C145.911 47.9403 139.582 47.7725 138.737 48.054C137.719 48.0594 137.177 48.1352 137.177 48.1352L137.269 47.1607L137.274 47.1662Z" fill="#4A2C74"/>
<path d="M144.085 68.3469C144.085 68.3469 146.122 65.9757 145.375 63.0576L146.496 63.5232L147.423 66.0081C147.423 66.0081 145.618 67.6973 144.085 68.3523V68.3469Z" fill="black"/>
<path d="M143.543 65.65C143.543 65.65 146.03 63.6036 147.249 63.5441C148.468 63.4845 148.912 63.7498 148.912 63.7498C148.912 63.7498 148.56 61.3785 147.644 61.8116C146.734 62.2502 145.125 62.2826 143.012 65.9207" fill="black"/>
<path d="M154.575 57.2305C155.924 62.4819 155.062 69.5523 147.905 77.7867C134.207 93.541 122.417 95.5441 122.417 95.5441C111.683 94.9215 97.4492 91.0019 84.7432 77.1804C84.7432 77.1804 87.2844 77.6785 92.2584 78.7125C97.9748 79.9036 105.983 80.1634 115.124 78.3498C132.213 74.9553 152.245 65.3891 154.575 57.2359V57.2305Z" fill="#4A2C74"/>
<path d="M114.859 107.482C111.96 102.155 105.16 98.598 102.164 97.2933C100.701 96.6545 99.0535 96.5516 97.6339 97.0497C97.4876 97.0984 97.3467 97.1634 97.2058 97.2175C96.5773 96.6328 96.1221 96.3242 96.1221 96.3242C93.5322 96.779 92.1722 98.3923 92.1722 98.3923C92.3022 98.7388 92.5244 99.1502 92.7519 99.5238C96.2522 104.71 88.4931 104.331 87.5395 104.239C86.7538 103.828 85.9628 103.595 85.9628 103.595C83.8984 104.976 83.3457 106.957 83.3457 106.957C83.725 107.347 84.3047 107.78 84.7761 108.11C84.3156 108.993 84.4619 110.081 85.1663 110.936C90.1836 117.032 95.9054 118.423 99.281 118.662C100.977 118.781 102.028 117.162 101.102 115.825C100.251 114.59 99.1131 113.643 98.4087 113.129C98.0294 112.847 97.9048 112.365 98.1378 112.019C99.1131 110.546 100.874 109.507 101.952 108.982C102.472 108.722 103.123 108.706 103.708 108.944C107.067 110.308 111.494 110.904 113.358 110.557C114.864 110.276 115.569 108.803 114.859 107.498V107.482Z" fill="black"/>
<path d="M137.599 113.827C144.784 112.528 152.592 107.807 162.724 100.558C163.152 100.341 167.27 102.188 166.549 106.389C159.224 110.216 147.883 118.039 136.933 117.222C136.797 116.469 135.199 116.231 137.604 113.833L137.599 113.827Z" fill="#292627"/>
<path d="M162.724 100.553C152.597 107.802 144.784 112.523 137.599 113.822C137.599 113.822 135.009 117.536 144.925 113.703C157.658 108.782 162.702 103.861 163.304 102.659C163.905 101.457 162.724 100.553 162.724 100.553Z" fill="#505050"/>
<path d="M124.449 75.7194C124.449 75.7194 121.128 70.5925 121.328 65.3952C121.566 59.1531 122.049 53.8746 129.737 53.631C137.426 53.3928 139.588 56.2729 139.826 59.3913C140.065 62.5097 141.988 69.2336 141.988 69.2336" fill="white"/>
<path d="M100.939 79.3466C100.939 79.3466 94.2259 71.3775 95.9868 66.7758C97.7478 62.174 104.309 59.6349 110.21 64.215C116.116 68.8005 118.543 77.5493 118.543 77.5493C118.543 77.5493 107.615 80.3103 102.57 79.1734" fill="white"/>
<path d="M146.301 68.8809C143.716 74.874 137.284 78.8098 130.869 79.2592C132.359 78.6799 133.86 78.1926 135.291 77.4942C139.576 75.5399 143.386 72.6056 146.301 68.8809Z" fill="#0F131E"/>
<path d="M147.152 125.774L144.725 112.576L145.407 112.473L152.104 125.071C152.104 125.071 149.574 125.839 147.152 125.774Z" fill="#292627"/>
<path d="M138.07 125.899C138.07 125.899 143.472 117.979 145.006 111.693C145.006 111.693 147.823 115.781 141.999 126.825L138.07 125.899Z" fill="#505050"/>
<path d="M107.868 98.2825C107.868 98.2825 131.172 85.0781 141.744 81.7216C141.744 81.7216 145.108 80.2815 148.712 81.7216C152.315 83.1617 157.603 92.0457 157.603 92.0457C157.603 92.0457 151.6 91.0875 149.676 91.5639C147.753 92.0403 126.61 94.9259 114.121 101.406" fill="#7D5CA2"/>
<path d="M113.785 102.298C115.362 101.643 117.074 100.999 118.922 100.409C121.875 99.4613 124.643 98.8008 127.152 98.3406C126.697 97.5394 126.117 96.6299 125.288 95.7745C123.906 94.3506 121.625 92.6399 118.022 91.4976C116.364 92.3746 114.533 93.4682 112.615 94.8271C110.81 96.1101 109.25 97.3986 107.928 98.6059" fill="#53367B"/>
<path d="M113.839 100.713C112.609 98.7536 111.179 97.189 108.817 97.0537C105.864 96.8859 102.851 96.534 102.049 97.6817C102.011 97.7358 101.979 97.7846 101.946 97.8279L102.206 98.759C103.404 98.8673 104.628 99.295 104.509 100.356C104.509 100.356 104.498 100.367 104.487 100.383C103.778 100.876 102.006 102.116 100.586 103.317C100.494 103.361 100.407 103.393 100.315 103.442C98.8306 104.249 98.045 105.683 98.5705 106.642C98.6464 106.777 98.7439 106.896 98.8631 106.993C99.0203 107.324 99.302 107.497 99.8764 107.416C100.386 107.486 100.982 107.416 101.583 107.199C101.626 107.248 101.681 107.302 101.735 107.351C101.269 107.968 101.112 108.65 101.399 109.175C101.811 109.933 102.992 110.101 104.173 109.635C104.065 109.96 104.065 110.274 104.206 110.545C104.579 111.232 105.744 111.319 106.806 110.745C107.213 110.529 107.538 110.242 107.776 109.939C108.269 109.776 108.838 109.505 109.532 109.067C109.841 108.872 110.09 108.666 110.307 108.45C112.073 106.836 113.563 106.225 114.002 103.973C114.224 102.83 114.506 101.775 113.839 100.713Z" fill="#4A2C74"/>
<path d="M91.218 116.099C92.7037 115.293 93.4844 113.86 92.9616 112.898C92.4388 111.937 90.8106 111.811 89.3249 112.617C87.8392 113.423 87.0586 114.857 87.5813 115.818C88.1041 116.78 89.7323 116.906 91.218 116.099Z" fill="#6F4A98"/>
<path d="M93.0956 118.427C94.4157 117.71 95.1095 116.437 94.6453 115.584C94.1811 114.73 92.7346 114.618 91.4146 115.335C90.0945 116.051 89.4007 117.324 89.8649 118.178C90.3292 119.032 91.7756 119.143 93.0956 118.427Z" fill="#6F4A98"/>
<path d="M95.6391 119.932C96.7014 119.356 97.2593 118.33 96.8851 117.642C96.5108 116.953 95.3463 116.863 94.2839 117.439C93.2216 118.016 92.6637 119.041 93.0379 119.73C93.4122 120.418 94.5767 120.509 95.6391 119.932Z" fill="#6F4A98"/>
<path d="M142.291 68.8466C142.502 68.6247 142.752 68.4731 143.023 68.3594C142.535 63.671 140.254 53.5472 131.969 51.36C120.721 48.3878 116.939 65.5929 123.825 75.0888L122.66 71.6402C122.4 70.8606 122.075 69.6912 121.896 68.2782C121.766 67.2279 120.905 58.176 126.621 55.2904C130.544 53.309 135.616 54.7707 138.282 58.6145C140.151 61.316 141.419 66.4158 142.009 69.2148C142.096 69.0902 142.188 68.9657 142.297 68.8575L142.291 68.8466Z" fill="black"/>
<path d="M101.149 79.9023C92.2254 71.695 91.9978 57.3971 103.707 60.2881C114.988 63.0708 119.339 77.098 119.041 76.9464L118.45 77.2658C118.45 77.2658 115.042 69.9084 111.553 66.5952C108.063 63.2765 102.759 61.8743 99.3614 63.401C94.4144 65.6207 97.3295 73.2433 97.6979 74.1312C98.1964 75.3222 98.7816 76.313 99.2151 76.9789" fill="black"/>
<path d="M110.653 79.646C110.653 79.646 108.101 79.8842 106.124 77.161C104.141 74.4379 104.487 70.5562 107.63 70.4479C111.548 70.3126 115.297 75.5206 115.541 78.9259" fill="black"/>
<path d="M126.302 75.4776C126.302 75.4776 125.939 75.299 125.224 71.1466C124.682 68.0228 126.616 64.0491 129.667 64.3414C133.47 64.6987 135.155 69.1705 134.413 72.5975" fill="black"/>
<path d="M129.558 67.3677C129.829 67.8116 129.596 68.3963 129.032 68.667C128.469 68.9377 127.797 68.797 127.526 68.353C127.255 67.9091 127.488 67.3244 128.052 67.0537C128.615 66.783 129.287 66.9238 129.558 67.3677Z" fill="white"/>
<path d="M108.383 73.0578C108.756 73.453 108.67 74.054 108.188 74.4059C107.705 74.7578 107.006 74.7253 106.627 74.3301C106.248 73.9349 106.34 73.3339 106.822 72.982C107.304 72.6301 108.003 72.6626 108.383 73.0578Z" fill="white"/>
</g>
<defs>
<linearGradient id="paint0_linear_10794_16926" x1="132.008" y1="30.2886" x2="132.008" y2="150.134" gradientUnits="userSpaceOnUse">
<stop stop-color="#91F2B2"/>
<stop offset="1" stop-color="#8BBFFF"/>
</linearGradient>
<linearGradient id="paint1_linear_10794_16926" x1="78.6165" y1="67.928" x2="147.903" y2="72.8729" gradientUnits="userSpaceOnUse">
<stop stop-color="#F6D7B7"/>
<stop offset="1" stop-color="#D3966D"/>
</linearGradient>
<clipPath id="clip0_10794_16926">
<rect width="240" height="183.128" fill="white"/>
</clipPath>
</defs>
</svg>
