<svg width="21" height="15" viewBox="0 0 21 15" fill="none" xmlns="http://www.w3.org/2000/svg">
<g clip-path="url(#clip0_35_967)">
<path d="M1.61 6.51L0 4.54428V7.14714L2.87 14.77L3.44714 12.2329L1.61 6.51Z" fill="url(#paint0_linear_35_967)"/>
<path d="M0.878662 8.13428C1.3858 9.17428 1.79295 10.2514 2.0958 11.3686C1.58866 10.33 1.18295 9.25 0.878662 8.13428Z" fill="#4ED404"/>
<path d="M2.87012 12.1671V14.77L20.1401 10.2386V7.54572L2.87012 12.1671Z" fill="url(#paint1_linear_35_967)"/>
<path d="M4.76001 12.6C8.37572 11.5386 12.0614 10.5686 15.7314 9.71285C12.1157 10.7743 8.43001 11.7443 4.76001 12.6Z" fill="#40C100"/>
<path d="M2.97998 13.9114C4.61284 13.49 6.38141 13.0014 8.02855 12.6643C6.83855 13.0586 5.49141 13.3971 4.27712 13.7329L3.01998 14.0629L2.97998 13.91V13.9114Z" fill="#40C100"/>
<path d="M13.9358 10.8043C15.3944 10.3386 17.0415 9.92143 18.5258 9.51429L20.0629 9.11L20.1029 9.26286C18.1072 9.78 15.9444 10.3729 13.9358 10.8043Z" fill="#40C100"/>
<path d="M20.1343 7.62714L2.85714 12.13L0 4.50286L17.2771 0L20.1343 7.62714Z" fill="#72E22C"/>
<path d="M16.8857 0.754286L19.2971 7.19286L3.24857 11.3757L0.837143 4.93714L16.8857 0.754286ZM17.2771 0L0 4.50286L2.85714 12.13L20.1343 7.62714L17.2771 0Z" fill="#9DF35C"/>
<path d="M12.4842 5.43857C13.08 7.02857 12.5185 8.58857 11.23 8.92429C9.94139 9.26 8.41567 8.24429 7.81996 6.65429C7.22425 5.06429 7.78567 3.50429 9.07425 3.16857C10.3628 2.83286 11.8885 3.84857 12.4842 5.43857Z" fill="#40C100"/>
<path d="M3.48418 5.69571C3.66276 6.20286 3.43704 6.71 2.98276 6.83C2.52704 6.94857 2.01418 6.63428 1.83561 6.12714C1.65704 5.62 1.88276 5.11286 2.33704 4.99286C2.79276 4.87429 3.30561 5.18857 3.48418 5.69571Z" fill="#40C100"/>
<path d="M4.86993 9.46428C5.0485 9.97143 4.82278 10.4786 4.3685 10.5986C3.91278 10.7171 3.39993 10.4029 3.22136 9.89571C3.04278 9.38857 3.2685 8.88143 3.72278 8.76143C4.1785 8.64286 4.69136 8.95714 4.86993 9.46428Z" fill="#40C100"/>
<path d="M16.8814 2.19429C17.06 2.70143 16.8343 3.20857 16.38 3.32857C15.9257 3.44857 15.4114 3.13286 15.2328 2.62572C15.0543 2.11857 15.28 1.61143 15.7343 1.49143C16.19 1.37286 16.7028 1.68714 16.8814 2.19429Z" fill="#40C100"/>
<path d="M18.2671 5.96143C18.4457 6.46857 18.22 6.97572 17.7657 7.09572C17.31 7.21429 16.7971 6.9 16.6186 6.39286C16.44 5.88572 16.6657 5.37857 17.12 5.25857C17.5757 5.14 18.0886 5.45429 18.2671 5.96143Z" fill="#40C100"/>
<path d="M10.4314 8.46143L10.2671 7.92143C9.45994 8.01571 8.98423 7.65 8.82709 7.15428L9.97709 6.84714C10.0499 7.06428 10.2471 7.18571 10.4899 7.12143C10.6985 7.06571 10.8314 6.88 10.7771 6.70286C10.7099 6.48286 10.4599 6.4 9.91137 6.39C8.80851 6.37143 8.53423 6.04571 8.4028 5.61143C8.24566 5.09143 8.49137 4.61 9.15423 4.25286L8.98994 3.71143L9.89851 3.46857L10.0628 4.01C10.6742 3.96286 11.1414 4.23143 11.3071 4.77714L10.2642 5.05571C10.2128 4.88428 10.0342 4.75286 9.79137 4.81714C9.5828 4.87286 9.46709 5.04286 9.51851 5.21428C9.58709 5.43857 9.8928 5.51428 10.4099 5.51428C11.2542 5.51428 11.7528 5.81571 11.8957 6.28714C12.0457 6.78 11.7685 7.30428 11.1699 7.65571L11.3399 8.21714L10.4314 8.46V8.46143Z" fill="#72E22C"/>
</g>
<defs>
<linearGradient id="paint0_linear_35_967" x1="0" y1="9.65714" x2="3.44714" y2="9.65714" gradientUnits="userSpaceOnUse">
<stop offset="0.12" stop-color="#72E22C"/>
<stop offset="0.94" stop-color="#40C100"/>
</linearGradient>
<linearGradient id="paint1_linear_35_967" x1="2.87012" y1="11.1571" x2="20.1401" y2="11.1571" gradientUnits="userSpaceOnUse">
<stop offset="0.12" stop-color="#5AD811"/>
<stop offset="0.94" stop-color="#40C100"/>
</linearGradient>
<clipPath id="clip0_35_967">
<rect width="20.14" height="14.77" fill="white"/>
</clipPath>
</defs>
</svg>
