<svg width="80" height="80" viewBox="0 0 80 80" fill="none" xmlns="http://www.w3.org/2000/svg">
<circle cx="40" cy="40" r="40" fill="#5F1C8C"/>
<g filter="url(#filter0_d_10906_19697)">
<path d="M50 25H30C21.6406 25 15 31.7187 15 40C15 48.3594 21.6406 55 30 55H50C58.2812 55 65 48.3594 65 40C65 31.7187 58.2812 25 50 25ZM34.2969 41.875C32.9162 41.875 31.7969 42.9943 31.7969 44.375C31.7969 45.4687 30.9375 46.25 29.9219 46.25C28.8281 46.25 28.0469 45.4687 28.0469 44.375V44.2969C28.0469 42.9593 26.9626 41.875 25.625 41.875C24.5312 41.875 23.6719 41.0937 23.6719 40C23.6719 38.9844 24.4531 38.125 25.5469 38.125C26.9276 38.125 28.0469 37.0057 28.0469 35.625C28.0469 34.6094 28.8281 33.75 29.9219 33.75C30.9375 33.75 31.7969 34.6094 31.7969 35.625C31.7969 37.0057 32.9162 38.125 34.2969 38.125C35.3125 38.125 36.1719 38.9844 36.1719 40C36.1719 41.0937 35.3906 41.875 34.2969 41.875ZM48.6719 46.875C46.875 46.875 45.625 45.5469 45.625 43.8281C45.625 42.1875 46.9531 40.7031 48.6719 40.7031C50.3125 40.7031 51.7187 42.1094 51.7187 43.8281C51.7187 45.625 50.4687 46.875 48.6719 46.875ZM53.6719 39.375C51.875 39.375 50.625 38.0469 50.625 36.3281C50.625 34.6875 51.9531 33.2031 53.6719 33.2031C55.3906 33.2031 56.7187 34.6094 56.7187 36.3281C56.7187 38.125 55.4687 39.375 53.6719 39.375Z" fill="#39D667"/>
</g>
<defs>
<filter id="filter0_d_10906_19697" x="3" y="17" width="74" height="54" filterUnits="userSpaceOnUse" color-interpolation-filters="sRGB">
<feFlood flood-opacity="0" result="BackgroundImageFix"/>
<feColorMatrix in="SourceAlpha" type="matrix" values="0 0 0 0 0 0 0 0 0 0 0 0 0 0 0 0 0 0 127 0" result="hardAlpha"/>
<feOffset dy="4"/>
<feGaussianBlur stdDeviation="6"/>
<feColorMatrix type="matrix" values="0 0 0 0 0 0 0 0 0 0 0 0 0 0 0 0 0 0 0.16 0"/>
<feBlend mode="normal" in2="BackgroundImageFix" result="effect1_dropShadow_10906_19697"/>
<feBlend mode="normal" in="SourceGraphic" in2="effect1_dropShadow_10906_19697" result="shape"/>
</filter>
</defs>
</svg>
