<svg width="24" height="24" viewBox="0 0 24 24" fill="none" xmlns="http://www.w3.org/2000/svg">
<path d="M16 6H8C4.65625 6 2 8.6875 2 12C2 15.3437 4.65625 18 8 18H16C19.3125 18 22 15.3437 22 12C22 8.6875 19.3125 6 16 6ZM9.71875 12.75H8.71875V13.75C8.71875 14.1875 8.375 14.5 7.96875 14.5C7.53125 14.5 7.21875 14.1875 7.21875 13.75V12.75H6.25C5.8125 12.75 5.46875 12.4375 5.46875 12C5.46875 11.5937 5.78125 11.25 6.21875 11.25H7.21875V10.25C7.21875 9.84375 7.53125 9.5 7.96875 9.5C8.375 9.5 8.71875 9.84375 8.71875 10.25V11.25H9.71875C10.125 11.25 10.4688 11.5937 10.4688 12C10.4688 12.4375 10.1563 12.75 9.71875 12.75ZM15.4688 14.75C14.75 14.75 14.25 14.2187 14.25 13.5312C14.25 12.875 14.7813 12.2812 15.4688 12.2812C16.125 12.2812 16.6875 12.8437 16.6875 13.5312C16.6875 14.25 16.1875 14.75 15.4688 14.75ZM17.4688 11.75C16.75 11.75 16.25 11.2187 16.25 10.5312C16.25 9.875 16.7813 9.28125 17.4688 9.28125C18.1563 9.28125 18.6875 9.84375 18.6875 10.5312C18.6875 11.25 18.1875 11.75 17.4688 11.75Z" fill="#320B4D"/>
</svg>
