<svg width="24" height="24" viewBox="0 0 24 24" fill="none" xmlns="http://www.w3.org/2000/svg">
<path d="M1 4.31017C1 3.8544 1.35059 3.46875 1.84142 3.46875H3.41908C4.19039 3.46875 4.89157 3.92452 5.2071 4.59064H19.6164C20.528 4.59064 21.1941 5.46712 20.9487 6.37866L19.5113 11.7077C19.2308 12.8296 18.2141 13.5658 17.0922 13.5658H6.96006L7.17042 14.5825C7.24054 14.9682 7.59113 15.2486 7.97678 15.2486H18.1089C18.5647 15.2486 18.9503 15.6343 18.9503 16.0901C18.9503 16.5809 18.5647 16.9315 18.1089 16.9315H7.97678C6.78477 16.9315 5.73299 16.0901 5.52264 14.8981L3.69956 5.39701C3.6645 5.25677 3.55932 5.15159 3.41908 5.15159H1.84142C1.35059 5.15159 1 4.801 1 4.31017ZM5.48758 19.7362C5.48758 19.1402 5.80311 18.6143 6.329 18.2988C6.81983 17.9833 7.48595 17.9833 8.01184 18.2988C8.50267 18.6143 8.85326 19.1402 8.85326 19.7362C8.85326 20.3673 8.50267 20.8932 8.01184 21.2087C7.48595 21.5242 6.81983 21.5242 6.329 21.2087C5.80311 20.8932 5.48758 20.3673 5.48758 19.7362ZM17.2675 18.0534C17.8635 18.0534 18.3894 18.404 18.7049 18.8948C19.0204 19.4207 19.0204 20.0868 18.7049 20.5776C18.3894 21.1035 17.8635 21.4191 17.2675 21.4191C16.6364 21.4191 16.1105 21.1035 15.795 20.5776C15.4795 20.0868 15.4795 19.4207 15.795 18.8948C16.1105 18.404 16.6364 18.0534 17.2675 18.0534Z" fill="white"/>
</svg>
