<svg width="24" height="24" viewBox="0 0 24 24" fill="none" xmlns="http://www.w3.org/2000/svg">
<path d="M20.5294 9.11029L15.5294 4.25735C15.1985 3.92647 14.6471 3.92647 14.2794 4.29412C13.9485 4.625 13.9485 5.17647 14.3162 5.54412L19.2794 10.3603C19.9044 10.9853 20.2353 11.7574 20.2353 12.6029C20.2353 13.4485 19.9044 14.2574 19.2794 14.8456L15.1985 19C14.8309 19.3309 14.8309 19.8824 15.1985 20.25C15.3456 20.3971 15.5662 20.4706 15.8235 20.4706C16.0441 20.4706 16.2647 20.3971 16.4485 20.2132L20.5294 16.0956C21.4853 15.1765 22 13.9265 22 12.6029C22 11.2794 21.4853 10.0662 20.5294 9.11029ZM17.8456 11.1324L11.3382 4.625C11.0074 4.29412 10.3456 4 9.86765 4H3.02941C2.44118 4 2 4.47794 2 5.02941V11.9044C2 12.3824 2.25735 13.0441 2.58824 13.375L9.09559 19.8824C9.90441 20.6912 11.1912 20.6912 12 19.8824L17.8456 14.0368C18.6544 13.2279 18.6544 11.9412 17.8456 11.1324ZM6.11765 9.29412C5.45588 9.29412 4.94118 8.77941 4.94118 8.11765C4.94118 7.49265 5.45588 6.94118 6.11765 6.94118C6.74265 6.94118 7.29412 7.49265 7.29412 8.11765C7.29412 8.77941 6.74265 9.29412 6.11765 9.29412Z" fill="white"/>
</svg>
