<svg width="24" height="24" viewBox="0 0 24 24" fill="none" xmlns="http://www.w3.org/2000/svg">
<path d="M21.9947 11.9825C21.9947 12.614 21.4731 13.1053 20.882 13.1053H19.7692L19.804 18.7193C19.804 18.8246 19.804 18.9298 19.804 19V19.5965C19.804 20.3684 19.1781 21 18.4131 21H17.8567C17.7872 21 17.7524 21 17.7176 20.9649C17.6828 21 17.6133 21 17.5785 21L16.4658 20.9649H15.6312C14.8314 20.9649 14.2403 20.3684 14.2403 19.5614V16.4737C14.2403 15.8772 13.7187 15.3509 13.1275 15.3509H10.902C10.2761 15.3509 9.78926 15.8772 9.78926 16.4737V19.5614C9.78926 20.3684 9.16334 20.9649 8.39832 20.9649H6.451C6.38146 20.9649 6.34668 20.9649 6.27714 20.9649C6.24236 20.9649 6.20759 20.9649 6.17282 20.9649H5.61644C4.81665 20.9649 4.2255 20.3684 4.2255 19.5614V15.6316C4.2255 15.6316 4.2255 15.5965 4.2255 15.5614V13.1053H3.11275C2.48683 13.1053 2 12.614 2 11.9825C2 11.6667 2.10432 11.386 2.34773 11.1404L11.2497 3.2807C11.4932 3.03509 11.7713 3 12.0148 3C12.2582 3 12.5364 3.07018 12.745 3.24561L21.6122 11.1404C21.8904 11.386 22.0295 11.6667 21.9947 11.9825Z" fill="white"/>
</svg>
