<svg width="32" height="32" viewBox="0 0 32 32" fill="none" xmlns="http://www.w3.org/2000/svg">
<path d="M15.3586 2.66667C16.218 2.66667 16.9764 3.44792 16.9764 4.33333V5.375C20.6669 6.10417 23.4474 9.48958 23.4474 13.5V14.4896C23.4474 16.9375 24.3068 19.3333 25.874 21.1562L26.2279 21.5729C26.6829 22.0938 26.784 22.7708 26.5312 23.3958C26.2785 23.9688 25.6718 24.3333 25.0652 24.3333H5.65206C4.99485 24.3333 4.38819 23.9688 4.13542 23.3958C3.88264 22.7708 3.98375 22.0938 4.43874 21.5729L4.79263 21.1562C6.35983 19.3333 7.26982 16.9375 7.26982 14.4896V13.5C7.26982 9.48958 10.0503 6.10417 13.7409 5.375V4.33333C13.7409 3.44792 14.4486 2.66667 15.3586 2.66667ZM17.6336 28.3958C17.0269 29.0208 16.218 29.3333 15.3586 29.3333C14.4992 29.3333 13.6397 29.0208 13.0331 28.3958C12.4264 27.7708 12.1231 26.8854 12.1231 26H18.5941C18.5941 26.8854 18.2402 27.7708 17.6336 28.3958Z" fill="#787579"/>
</svg>
