<svg width="40" height="40" viewBox="0 0 40 40" fill="none" xmlns="http://www.w3.org/2000/svg">
<path d="M20.0325 6.45801C15.1497 6.45801 10.7226 9.06217 8.24862 13.2288C5.83976 17.4606 5.83976 22.6038 8.24862 26.7705C10.7226 31.0023 15.1497 33.5413 20.0325 33.5413C24.8502 33.5413 29.2773 31.0023 31.7512 26.7705C34.1601 22.6038 34.1601 17.4606 31.7512 13.2288C29.2773 9.06217 24.8502 6.45801 20.0325 6.45801ZM20.0325 36.6663C14.0429 36.6663 8.57414 33.5413 5.57935 28.333C2.58455 23.1898 2.58455 16.8747 5.57935 11.6663C8.57414 6.52311 14.0429 3.33301 20.0325 3.33301C25.9569 3.33301 31.4257 6.52311 34.4205 11.6663C37.4153 16.8747 37.4153 23.1898 34.4205 28.333C31.4257 33.5413 25.9569 36.6663 20.0325 36.6663ZM18.47 25.7288V21.5622H14.3033C13.3918 21.5622 12.7408 20.9111 12.7408 19.9997C12.7408 19.1533 13.3918 18.4372 14.3033 18.4372H18.47V14.2705C18.47 13.4242 19.121 12.708 20.0325 12.708C20.8788 12.708 21.595 13.4242 21.595 14.2705V18.4372H25.7616C26.608 18.4372 27.3241 19.1533 27.3241 19.9997C27.3241 20.9111 26.608 21.5622 25.7616 21.5622H21.595V25.7288C21.595 26.6403 20.8788 27.2913 20.0325 27.2913C19.121 27.2913 18.47 26.6403 18.47 25.7288Z" fill="#320B4D"/>
</svg>
