<svg width="20" height="20" viewBox="0 0 20 20" fill="none" xmlns="http://www.w3.org/2000/svg">
<rect x="1" y="1" width="18" height="18" rx="8.5" fill="white"/>
<rect x="1" y="1" width="18" height="18" rx="8.5" stroke="#39D667" stroke-width="2"/>
<path d="M14.7656 11.0391L11.0156 14.7891C10.7344 15.0938 10.2422 15.0938 9.96094 14.7891C9.65625 14.5078 9.65625 14.0156 9.96094 13.7344L12.4219 11.25H5.25C4.82812 11.25 4.5 10.9219 4.5 10.5C4.5 10.1016 4.82812 9.75 5.25 9.75H12.4219L9.96094 7.28906C9.65625 7.00781 9.65625 6.51562 9.96094 6.23438C10.2422 5.92969 10.7344 5.92969 11.0156 6.23438L14.7656 9.98438C15.0703 10.2656 15.0703 10.7578 14.7656 11.0391Z" fill="#0C7A20"/>
</svg>
