<svg width="32" height="32" viewBox="0 0 32 32" fill="none" xmlns="http://www.w3.org/2000/svg">
<path d="M29.3847 26.267L22.8212 19.7035C24.298 17.5157 25.0637 14.7809 24.6808 11.8273C23.9698 6.79534 19.8676 2.74785 14.8903 2.0915C7.45168 1.16168 1.16168 7.45168 2.0915 14.8903C2.74785 19.8676 6.79534 23.9698 11.8273 24.6808C14.7809 25.0637 17.5157 24.298 19.7582 22.8212L26.267 29.3847C27.1421 30.2051 28.5095 30.2051 29.3847 29.3847C30.2051 28.5095 30.2051 27.1421 29.3847 26.267ZM6.35777 13.3588C6.35777 9.53012 9.47543 6.35777 13.3588 6.35777C17.1875 6.35777 20.3599 9.53012 20.3599 13.3588C20.3599 17.2422 17.1875 20.3599 13.3588 20.3599C9.47543 20.3599 6.35777 17.2422 6.35777 13.3588Z" fill="#7629A2"/>
</svg>
