<svg width="32" height="32" viewBox="0 0 32 32" fill="none" xmlns="http://www.w3.org/2000/svg">
<path d="M3.83652 11.6995C4.60903 12.4126 5.85695 12.2937 6.51061 11.5806L8.47162 9.44137V27.3875C8.47162 28.4571 9.30356 29.2891 10.3732 29.2891C11.3834 29.2891 12.2748 28.4571 12.2748 27.3875V9.44137L14.1764 11.5806C14.8894 12.3532 16.0779 12.4126 16.8504 11.6995C17.623 10.9864 17.6824 9.79791 16.9693 9.0254L11.74 3.26124C11.0269 2.48872 9.6601 2.48872 8.94701 3.26124L3.77709 9.0254C3.00458 9.79791 3.064 10.9864 3.83652 11.6995ZM15.246 20.316C14.4735 21.0291 14.414 22.2176 15.1271 22.9901L20.2971 28.7543C21.0101 29.5268 22.3769 29.5268 23.09 28.7543L28.2599 22.9901C28.973 22.2176 28.9136 21.0291 28.1411 20.316C27.3686 19.6029 26.1801 19.7218 25.467 20.4349L23.6842 22.5741V4.62799C23.6842 3.55836 22.7929 2.66699 21.7827 2.66699C20.713 2.66699 19.8811 3.55836 19.8811 4.62799V22.5741L17.9201 20.4349C17.207 19.6623 16.0185 19.6029 15.246 20.316Z" fill="#5F1C8C"/>
</svg>
